<?xml version="1.0" standalone="no"?>
<!DOCTYPE svg PUBLIC "-//W3C//DTD SVG 20010904//EN"
 "http://www.w3.org/TR/2001/REC-SVG-20010904/DTD/svg10.dtd">
<svg version="1.0" xmlns="http://www.w3.org/2000/svg"
 width="1440.000000pt" height="1440.000000pt" viewBox="0 0 1440.000000 1440.000000"
 preserveAspectRatio="xMidYMid meet">

<g transform="translate(0.000000,1440.000000) scale(0.100000,-0.100000)"
fill="#000000" stroke="none">
<path d="M6615 14324 c-828 -65 -1615 -270 -2405 -625 -102 -46 -404 -199
-493 -250 -272 -156 -488 -295 -707 -452 -69 -50 -127 -94 -130 -97 -3 -3 -21
-17 -40 -30 -32 -23 -65 -49 -94 -75 -6 -6 -31 -26 -56 -45 -25 -19 -58 -47
-75 -61 -16 -15 -68 -60 -115 -101 -404 -351 -811 -803 -1111 -1233 -78 -111
-189 -276 -189 -280 0 -2 -13 -23 -29 -47 -16 -24 -38 -59 -49 -78 -11 -19
-59 -102 -107 -185 -89 -154 -251 -476 -325 -645 -407 -928 -617 -1965 -597
-2950 8 -383 21 -552 73 -920 44 -304 146 -786 165 -774 14 8 129 165 129 175
0 4 -7 34 -15 66 -15 56 -32 150 -41 223 -3 19 -11 85 -19 145 -44 342 -49
426 -49 820 -1 256 4 426 12 495 7 58 22 179 33 270 25 216 34 269 80 495 50
249 49 245 90 268 18 11 46 30 61 42 46 39 92 48 204 42 107 -6 188 -27 241
-62 61 -42 136 -50 463 -50 l305 0 95 48 c53 26 101 47 107 47 6 0 24 10 40
23 48 39 80 47 185 47 l101 0 80 58 c44 31 103 80 131 107 28 28 66 60 84 70
17 11 32 23 32 27 0 4 8 8 18 8 10 0 22 4 27 9 6 5 51 14 100 19 85 9 222 49
320 93 110 50 105 49 366 49 239 0 250 1 288 23 71 39 211 218 211 269 0 7 11
31 24 54 13 22 25 52 28 65 3 13 15 68 27 122 24 114 27 121 89 193 135 156
133 154 138 197 2 17 11 43 19 60 8 17 15 35 15 40 0 6 14 40 30 76 21 45 40
72 61 84 46 26 136 22 225 -9 57 -21 86 -25 131 -22 85 7 237 65 290 112 39
34 160 102 238 133 34 13 116 29 195 37 30 4 71 9 90 11 19 3 71 10 115 15
126 15 178 25 212 43 18 9 41 17 52 17 20 0 61 15 130 49 19 9 81 62 139 118
124 121 109 117 369 111 132 -3 187 -8 213 -20 49 -22 170 -32 219 -18 24 6
48 21 57 36 17 25 31 136 41 317 l4 87 103 0 102 0 22 -74 c12 -41 29 -81 37
-90 9 -8 21 -30 27 -48 12 -37 60 -103 97 -133 14 -11 61 -40 105 -65 l81 -44
105 -1 c84 0 121 5 185 25 109 33 233 34 296 3 24 -12 60 -28 80 -36 20 -8 52
-36 74 -63 75 -94 97 -114 129 -114 17 0 87 -12 156 -25 85 -17 159 -25 231
-25 l107 0 26 -34 c14 -19 26 -38 26 -43 0 -4 27 -44 60 -88 32 -44 73 -99 91
-123 18 -24 46 -50 63 -59 17 -9 47 -28 66 -44 38 -29 276 -181 321 -205 27
-13 38 -30 86 -129 13 -27 28 -57 33 -65 5 -8 19 -35 31 -59 13 -25 61 -86
109 -135 47 -50 114 -128 149 -174 35 -46 85 -99 111 -118 27 -19 61 -56 76
-82 15 -26 51 -79 80 -119 30 -39 54 -75 54 -79 0 -17 76 -116 106 -139 42
-32 345 -177 404 -193 25 -7 73 -22 107 -32 34 -11 90 -20 125 -21 73 -1 123
-8 263 -38 94 -21 124 -22 490 -20 327 2 404 -1 475 -15 47 -9 126 -16 177
-16 50 0 104 -5 120 -11 15 -6 86 -14 158 -17 l129 -7 7 -30 c107 -470 149
-767 174 -1224 13 -240 14 -331 5 -500 -15 -285 -29 -489 -36 -516 -5 -18 17
-45 125 -156 72 -73 129 -135 127 -136 -2 -2 -104 56 -227 129 -123 74 -325
192 -448 263 -245 142 -240 135 -113 150 55 6 59 8 54 30 -2 14 3 31 12 40 24
25 12 33 -40 27 -41 -4 -46 -3 -42 14 2 11 13 20 26 22 41 6 16 42 -31 42 -27
0 -28 2 -25 41 4 60 31 74 63 34 l24 -29 26 24 c34 32 32 50 -4 50 -23 0 -30
5 -33 22 -2 14 -12 24 -28 28 -31 7 -31 17 -3 54 16 20 28 26 43 21 24 -8 24
-5 5 42 -20 48 -19 58 11 71 22 11 25 17 22 60 -2 32 -7 46 -16 44 -7 -1 -26
5 -42 15 -27 15 -31 15 -47 1 -24 -21 -93 -49 -104 -42 -5 3 -9 16 -9 30 0 30
54 67 88 59 26 -6 28 0 7 21 -8 9 -15 30 -15 48 0 49 -4 51 -141 72 -22 4 -39
1 -43 -5 -10 -15 -43 -14 -48 1 -7 21 17 101 32 109 8 4 23 10 33 13 26 8 23
69 -4 88 -17 10 -20 19 -14 37 6 20 12 22 40 17 28 -6 36 -2 60 25 l27 32 -26
16 c-14 9 -26 19 -26 23 0 5 -11 8 -24 8 -38 0 -76 18 -76 35 0 9 16 22 34 30
41 17 55 38 48 71 -4 20 -9 23 -26 18 -29 -9 -66 -30 -99 -56 -21 -17 -30 -19
-39 -10 -20 20 3 65 45 85 45 22 47 33 8 42 -40 8 -108 -27 -122 -63 -9 -23
-7 -29 12 -45 23 -18 20 -29 -9 -33 -9 -2 -30 -6 -46 -10 -22 -5 -32 -3 -43
11 -20 28 -16 41 23 78 33 31 35 36 23 55 -18 29 1 52 26 32 13 -11 18 -11 30
1 35 35 -47 109 -122 109 -42 0 -44 -1 -41 -27 2 -22 -2 -29 -19 -31 -29 -4
-71 24 -75 51 -3 25 -32 34 -53 17 -8 -7 -15 -27 -15 -45 0 -40 -23 -63 -45
-45 -17 14 -20 46 -5 55 13 8 13 41 -2 64 -6 10 -8 26 -5 35 5 12 11 14 32 6
37 -14 95 24 95 62 0 19 8 31 27 40 36 18 41 38 9 38 -31 0 -42 16 -25 36 10
12 9 18 -3 31 -14 14 -17 13 -23 -6 -3 -11 -17 -24 -30 -27 -14 -3 -26 -16
-29 -30 -4 -13 -11 -24 -16 -24 -6 0 -10 -9 -10 -20 0 -11 -6 -22 -12 -24 -7
-2 -28 -8 -47 -14 -27 -9 -38 -8 -57 5 -28 18 -23 33 12 33 26 0 40 20 30 45
-4 13 -9 13 -24 4 -27 -17 -52 -4 -52 26 0 14 -4 33 -9 43 -5 9 -12 25 -15 34
-5 17 -7 17 -36 0 -16 -9 -30 -25 -30 -35 0 -25 -45 -44 -65 -27 -17 14 -20
46 -5 55 15 9 12 42 -6 60 -13 12 -27 14 -62 9 -61 -9 -84 -36 -77 -87 5 -33
1 -41 -27 -68 -32 -29 -32 -31 -14 -45 11 -7 28 -14 38 -14 18 0 42 -33 31
-44 -3 -3 -18 -6 -33 -6 -35 0 -71 -38 -63 -68 6 -24 32 -29 63 -12 16 9 21 6
26 -14 8 -32 1 -42 -36 -49 -24 -5 -30 -12 -30 -32 0 -23 -4 -25 -40 -25 -42
0 -48 8 -28 40 20 31 -4 48 -37 26 -45 -30 -73 -3 -38 36 27 30 3 45 -50 31
-48 -13 -60 -7 -61 34 l-1 28 -92 3 c-99 3 -110 -3 -75 -41 17 -19 16 -20 -19
-13 -41 7 -49 -2 -49 -54 0 -33 -28 -47 -59 -31 -29 16 -41 13 -41 -7 0 -11
12 -24 26 -31 45 -20 22 -33 -64 -35 -73 -2 -82 0 -82 16 0 13 8 18 26 18 16
0 24 5 21 13 -2 6 -14 11 -25 9 -32 -5 -41 27 -14 49 12 9 22 22 22 27 0 12
-24 22 -51 22 -29 0 -23 23 12 44 37 22 29 34 -26 38 -31 2 -41 8 -43 23 -4
22 -39 54 -59 55 -8 0 -11 -9 -7 -28 4 -20 0 -33 -15 -46 -26 -23 -51 -14 -51
19 0 16 -6 25 -15 25 -23 0 -28 -24 -15 -64 8 -26 8 -40 0 -56 -11 -20 -13
-21 -30 -5 -10 9 -21 27 -24 41 -13 51 -42 10 -30 -43 3 -15 8 -36 11 -45 3
-15 -2 -18 -30 -18 -23 0 -37 6 -41 16 -8 22 -9 21 17 44 22 21 22 22 2 36
-11 8 -25 12 -32 9 -7 -3 -20 -8 -28 -11 -10 -4 -18 3 -25 20 -8 23 -13 25
-29 16 -28 -14 -51 -50 -51 -77 0 -16 -6 -23 -19 -23 -27 0 -34 15 -16 30 9 7
15 29 15 51 0 32 -4 39 -19 39 -11 0 -23 -5 -26 -11 -5 -7 -13 -5 -25 6 -30
27 -60 11 -60 -31 0 -27 -4 -34 -19 -34 -11 0 -27 10 -35 21 -12 18 -21 20
-50 15 -34 -6 -36 -5 -36 19 0 35 -21 31 -48 -10 -22 -35 -45 -45 -57 -25 -3
6 -15 10 -27 10 -19 0 -20 -1 -4 -25 20 -30 20 -49 1 -65 -14 -12 -14 -15 1
-31 23 -26 11 -49 -26 -49 -28 0 -30 -2 -30 -39 0 -28 -8 -49 -26 -71 -33 -38
-21 -61 21 -42 35 16 55 15 55 -3 0 -8 -12 -18 -27 -21 -30 -7 -45 -23 -37
-36 8 -12 68 -10 81 3 6 6 20 8 32 4 22 -7 28 -29 11 -40 -16 -10 -12 -38 5
-31 8 3 22 9 30 12 26 10 17 -32 -10 -50 -33 -22 -58 -20 -73 4 -14 24 -32 26
-32 5 0 -8 -11 -25 -25 -37 -19 -16 -22 -24 -14 -35 6 -7 18 -13 25 -13 8 0
24 -10 35 -21 19 -19 25 -20 42 -10 16 11 22 10 36 -4 15 -15 14 -18 -17 -43
-37 -31 -39 -38 -16 -64 14 -14 14 -20 4 -33 -17 -21 -31 -19 -63 10 -32 30
-31 28 -12 65 15 30 8 44 -17 35 -9 -4 -19 4 -26 20 -15 32 -19 31 -62 -5 -32
-28 -34 -31 -17 -44 21 -16 22 -30 2 -46 -12 -10 -16 -9 -21 6 -4 11 -14 27
-21 36 -18 21 -9 54 17 61 35 9 20 77 -17 77 -7 0 -21 -10 -32 -21 -15 -16
-27 -20 -46 -15 -28 7 -135 -20 -135 -34 0 -5 6 -13 13 -17 22 -13 59 -72 52
-83 -10 -16 -29 -12 -48 10 -17 21 -77 28 -77 10 0 -5 6 -10 13 -10 13 0 47
-30 47 -42 0 -2 -21 -15 -46 -27 l-46 -23 25 -25 c21 -21 28 -23 46 -14 33 18
42 4 40 -60 -2 -51 1 -62 19 -75 31 -21 29 -54 -3 -54 -33 0 -75 44 -75 80 0
39 -17 47 -46 19 -16 -15 -24 -34 -24 -55 l0 -32 -55 2 c-46 2 -59 -2 -76 -20
-27 -28 -17 -44 26 -44 42 0 65 -9 65 -25 0 -13 -74 -85 -88 -85 -4 0 -13 -9
-20 -21 -12 -18 -10 -24 12 -46 26 -26 34 -67 16 -78 -13 -8 -13 -45 -1 -45 5
0 23 11 39 25 17 14 37 25 46 25 19 0 21 -32 4 -60 -18 -29 7 -44 39 -23 37
25 56 10 48 -37 -6 -37 -5 -40 22 -45 49 -11 55 -15 51 -32 -2 -14 -14 -18
-48 -19 -25 -1 -60 -5 -79 -9 -36 -8 -37 -6 -16 63 5 14 3 22 -5 22 -6 0 -14
-9 -17 -19 -3 -11 -12 -22 -21 -26 -25 -9 -45 36 -22 50 13 8 3 25 -16 25 -8
0 -14 -8 -14 -18 0 -11 -7 -33 -16 -50 -8 -17 -18 -48 -21 -68 l-6 -36 32 7
c24 5 32 3 38 -11 8 -22 -21 -44 -60 -44 -19 0 -27 -4 -24 -12 2 -7 16 -12 31
-10 14 1 26 -2 26 -7 0 -12 -9 -14 -140 -35 -52 -9 -165 -27 -251 -41 -86 -14
-176 -27 -200 -30 -24 -3 -52 -8 -61 -11 -16 -5 -18 6 -20 102 l-3 108 -120
91 c-66 50 -250 190 -410 310 -159 121 -312 236 -340 257 -62 47 -88 48 -238
9 -62 -17 -245 -64 -407 -105 -349 -88 -706 -179 -949 -242 -554 -142 -656
-169 -1263 -323 -154 -39 -203 -49 -223 -41 l-25 10 0 228 0 229 -41 7 c-39 6
-187 1 -255 -10 l-31 -4 -8 -201 -7 -201 -77 6 c-42 4 -123 13 -181 21 -262
34 -301 38 -312 27 -9 -9 -82 -170 -171 -379 l-30 -71 -181 -36 c-100 -19
-192 -39 -205 -42 -22 -7 -24 -5 -18 23 11 55 -3 61 -174 74 -85 7 -163 10
-172 6 -15 -6 -17 -28 -17 -213 l0 -207 -27 -25 c-16 -14 -84 -78 -153 -142
-69 -65 -152 -143 -185 -174 l-60 -56 -70 0 c-38 0 -110 5 -160 10 -49 5 -142
11 -205 15 -63 3 -160 10 -215 15 -55 6 -174 14 -265 20 -91 5 -244 16 -340
25 -96 9 -187 13 -202 10 -19 -5 -30 -16 -37 -38 -6 -18 -50 -95 -97 -172 -48
-77 -109 -176 -135 -219 -27 -44 -49 -91 -49 -104 0 -14 -7 -33 -15 -42 -13
-14 -18 -69 -25 -301 -5 -156 -14 -431 -20 -612 -7 -227 -7 -333 0 -347 6 -10
25 -23 44 -28 19 -6 87 -54 154 -110 152 -126 153 -127 193 -107 27 14 43 15
113 6 44 -6 106 -13 136 -16 30 -3 84 -9 120 -15 36 -5 130 -16 210 -25 80 -9
192 -22 250 -30 58 -8 128 -17 155 -20 28 -3 102 -12 165 -20 63 -8 160 -19
215 -25 55 -6 152 -17 215 -25 193 -24 292 -35 355 -40 33 -3 83 -10 110 -15
28 -5 77 -12 110 -15 33 -3 112 -12 175 -20 146 -19 438 -53 555 -65 50 -6
119 -14 155 -20 36 -5 128 -17 205 -25 77 -9 174 -21 215 -26 41 -6 111 -14
155 -19 161 -17 532 -60 595 -70 36 -5 88 -12 115 -14 51 -6 310 -36 515 -62
63 -8 160 -19 215 -24 55 -6 109 -12 120 -15 29 -6 319 -40 550 -64 55 -6 132
-15 170 -21 39 -6 144 -19 235 -30 91 -11 201 -24 245 -30 44 -5 141 -16 215
-25 74 -9 187 -22 250 -30 63 -8 145 -17 183 -21 37 -3 67 -11 67 -17 0 -6
-26 -7 -77 -2 -43 4 -108 8 -145 9 -38 0 -68 3 -68 6 0 3 -50 6 -110 7 -90 1
-110 -1 -110 -13 0 -10 -12 -14 -40 -14 -22 0 -40 5 -40 10 0 6 17 10 38 11
28 0 32 2 17 8 -11 4 -69 9 -130 10 -60 0 -138 4 -172 7 -47 5 -63 3 -63 -6 0
-9 -6 -9 -22 2 -48 30 -1394 6 -1798 -31 -58 -6 -159 -15 -225 -21 -172 -14
-190 -16 -395 -39 -102 -12 -196 -24 -210 -28 -14 -3 -29 -5 -35 -4 -5 1 -36
-2 -70 -8 -33 -6 -115 -18 -182 -27 -67 -10 -120 -20 -118 -24 2 -3 -9 -4 -25
-2 -19 3 -35 -3 -49 -17 -12 -12 -31 -21 -44 -20 -16 1 -14 3 12 10 68 20 19
20 -93 0 -63 -12 -129 -21 -145 -21 -16 0 -32 -4 -35 -8 -2 -4 -19 -9 -38 -10
-31 -2 -74 -10 -173 -33 -22 -5 -53 -12 -70 -14 -48 -8 -178 -33 -200 -39 -11
-3 -94 -21 -185 -41 -91 -19 -192 -42 -225 -51 -33 -8 -78 -19 -100 -24 -73
-15 -219 -52 -300 -76 -65 -19 -204 -57 -285 -79 -8 -2 -78 -22 -155 -45 -77
-24 -180 -54 -230 -67 -49 -14 -94 -29 -100 -33 -5 -5 -28 -12 -50 -16 -22 -4
-83 -22 -135 -39 -52 -18 -167 -56 -255 -85 -88 -28 -174 -58 -192 -66 -17 -8
-36 -14 -41 -14 -6 0 -23 -5 -39 -12 -15 -6 -82 -30 -148 -53 -147 -51 -339
-122 -380 -140 -16 -7 -58 -23 -93 -35 -70 -26 -77 -38 -11 -19 24 7 51 14 59
16 8 1 65 15 125 31 61 16 122 32 138 36 39 9 34 27 -5 19 -18 -3 -35 -9 -38
-12 -3 -3 -18 -7 -35 -8 -32 -2 -32 -2 63 33 l63 24 -3 -23 c-2 -15 1 -21 12
-18 8 2 44 10 80 18 36 7 101 22 145 32 44 11 139 31 210 46 163 34 166 35
140 45 -13 6 -15 9 -5 9 8 0 21 -3 28 -8 13 -8 187 19 209 32 6 4 32 9 59 12
27 4 128 21 224 40 96 19 200 37 230 40 30 4 62 9 70 12 8 3 35 8 60 10 25 2
61 8 80 13 19 6 49 10 67 10 17 0 35 5 38 10 4 6 10 8 14 6 8 -5 296 29 341
40 14 3 63 10 110 14 47 5 119 14 160 20 41 5 158 19 260 30 102 12 192 23
200 25 8 2 52 7 97 9 45 3 171 14 280 25 109 11 254 22 323 26 69 3 157 10
195 15 63 8 232 18 415 25 36 2 126 6 200 10 239 13 343 15 1039 19 377 3 690
7 697 10 7 3 14 1 16 -4 2 -5 86 -11 188 -14 102 -3 238 -9 303 -12 96 -6 117
-4 117 7 0 11 2 11 10 -1 5 -8 22 -15 37 -16 15 0 96 -5 178 -9 173 -10 194
-10 215 -3 8 2 12 3 8 1 -21 -12 -3 -21 40 -20 64 0 239 -11 338 -23 45 -5 91
-6 103 -3 11 3 21 1 21 -5 0 -8 134 -24 240 -27 19 -1 43 -5 52 -9 9 -4 21 -5
26 -2 5 3 49 -1 98 -9 106 -18 114 -18 114 -5 0 6 -11 10 -25 10 -14 0 -25 5
-25 10 0 11 15 12 48 4 14 -4 21 -12 18 -20 -5 -12 48 -23 139 -29 17 -1 37
-5 45 -8 16 -6 88 -15 190 -24 36 -3 73 -9 82 -14 9 -5 34 -9 55 -9 21 0 55
-5 76 -11 21 -5 61 -12 90 -14 29 -1 101 -12 161 -24 60 -11 113 -18 117 -15
5 3 17 1 26 -4 27 -14 103 -24 103 -13 0 5 -21 12 -46 16 -25 3 -44 9 -41 12
3 2 26 1 51 -2 33 -5 46 -12 46 -24 0 -13 21 -20 103 -35 56 -10 125 -23 152
-28 28 -6 70 -14 94 -19 28 -6 48 -5 56 1 7 6 42 14 77 18 52 6 65 5 65 -6 0
-9 -8 -11 -26 -7 -25 6 -25 6 -6 -9 19 -15 18 -15 -15 -10 -19 3 -45 7 -57 10
-13 2 -23 1 -23 -4 0 -9 66 -25 200 -47 46 -8 96 -19 110 -25 14 -5 45 -14 70
-19 25 -6 63 -15 85 -21 22 -6 60 -14 85 -19 25 -5 70 -16 100 -25 30 -9 66
-18 80 -20 14 -2 58 -13 97 -25 73 -21 112 -27 100 -14 -4 3 -22 8 -39 10 -18
2 -34 8 -36 13 -2 6 -12 10 -22 10 -10 0 -21 3 -23 8 -3 4 24 5 59 4 56 -3 64
-6 64 -23 0 -17 5 -19 38 -15 l37 5 -37 -11 c-21 -6 -38 -14 -38 -17 0 -3 42
-14 93 -24 50 -10 96 -22 102 -27 5 -4 57 -20 115 -35 58 -15 134 -37 170 -50
36 -12 92 -30 125 -40 33 -10 78 -23 100 -30 22 -8 108 -34 190 -60 83 -26
172 -55 199 -66 27 -10 54 -19 61 -19 7 0 46 -13 86 -29 98 -38 308 -101 337
-101 9 0 88 18 176 39 89 22 196 47 238 56 58 12 78 21 83 35 3 10 16 21 28
23 18 4 17 5 -5 6 -16 0 -28 4 -28 9 0 4 19 6 41 4 30 -3 38 -7 28 -14 -10 -6
-3 -7 21 -4 26 5 30 4 15 -3 -11 -5 -34 -10 -52 -10 -17 -1 -35 -6 -39 -12 -9
-15 43 -8 156 19 47 11 162 34 255 52 188 35 362 86 550 162 28 11 73 27 100
35 86 27 180 68 163 71 -9 2 -27 -2 -40 -9 -31 -18 -170 -19 -163 -1 2 6 0 13
-5 13 -6 1 -14 2 -19 3 -24 3 -19 14 9 18 16 3 30 1 30 -4 0 -4 10 -8 23 -9
21 -1 21 -1 -3 -10 -20 -6 -16 -8 22 -6 25 1 44 -2 41 -7 -6 -9 38 2 50 14 7
6 -22 14 -153 39 -25 5 -85 18 -135 29 -49 11 -114 23 -142 27 -29 4 -53 11
-53 16 0 5 -17 9 -38 9 -21 0 -65 7 -97 16 -33 9 -70 17 -83 20 -12 2 -50 9
-85 15 -34 6 -66 14 -72 19 -5 4 -39 11 -75 14 -35 4 -69 11 -75 14 -5 4 -39
13 -75 20 -36 7 -85 17 -110 22 -25 6 -65 13 -90 16 -25 3 -54 9 -65 14 -11 5
-42 11 -69 14 -27 3 -54 10 -61 16 -6 5 -14 7 -17 5 -3 -3 -41 3 -84 14 -44
10 -106 24 -139 31 -33 6 -70 16 -83 21 -13 5 -35 9 -50 9 -15 0 -52 7 -82 15
-30 9 -91 20 -135 26 -44 6 -93 17 -109 25 -16 8 -46 14 -67 14 -21 0 -40 4
-43 9 -3 5 -16 9 -28 9 -21 0 -138 23 -338 67 -41 9 -91 18 -110 20 -34 5 -74
12 -175 35 -27 6 -66 11 -85 12 -19 0 -43 6 -54 13 -11 8 -31 12 -46 8 -15 -3
-31 0 -34 6 -4 6 -27 11 -52 11 -26 0 -44 5 -44 11 0 7 -9 9 -22 5 -13 -3 -36
-1 -53 4 -16 5 -79 19 -140 30 -60 11 -121 23 -135 26 -14 3 -86 16 -160 29
-74 13 -171 31 -215 40 -43 8 -86 13 -94 10 -8 -3 -17 -2 -20 3 -9 13 -218 39
-236 29 -22 -12 -104 -19 -85 -7 12 8 11 10 -5 10 -12 0 -26 -5 -33 -12 -8 -8
-12 -8 -12 -1 0 14 24 23 61 23 18 0 28 -4 24 -10 -3 -5 -1 -10 4 -10 6 0 11
4 11 10 0 5 7 7 15 4 8 -4 15 -2 15 4 0 5 -15 11 -32 11 -33 1 -41 2 -113 15
-93 16 -93 16 -98 -4 -3 -13 0 -20 10 -20 8 0 11 5 8 10 -7 12 48 12 85 0 23
-7 22 -8 -10 -10 -29 -1 -32 -3 -15 -10 13 -6 15 -9 5 -9 -8 0 -22 4 -30 9
-10 6 -20 4 -32 -7 -11 -10 -18 -12 -18 -5 0 7 -10 12 -22 12 -19 0 -20 -2 -8
-10 13 -9 13 -10 0 -10 -8 0 -32 5 -52 11 -27 7 -38 15 -38 29 0 11 5 20 10
20 6 0 9 -6 8 -12 -2 -9 12 -14 38 -16 32 -2 43 1 48 14 10 26 -4 34 -76 39
-36 3 -81 10 -99 15 -19 6 -47 10 -64 10 -29 -1 -29 -1 -11 -15 11 -8 15 -15
9 -15 -6 0 -15 6 -22 13 -19 24 6 34 64 26 31 -4 86 -10 123 -14 37 -3 171
-19 297 -35 127 -16 282 -34 345 -40 63 -6 129 -18 147 -27 19 -9 42 -13 57
-9 14 3 101 -3 193 -14 93 -10 188 -22 213 -25 25 -2 81 -9 125 -15 44 -5 137
-16 208 -25 70 -8 183 -22 252 -30 69 -8 182 -22 253 -30 70 -8 179 -22 242
-30 63 -7 160 -19 215 -25 173 -19 356 -41 465 -55 58 -8 128 -17 155 -20 119
-13 238 -27 340 -40 61 -8 171 -21 245 -30 74 -8 174 -20 221 -26 142 -17 189
-16 205 6 17 23 18 96 2 118 -10 13 -35 18 -113 22 -55 2 -131 9 -170 14 -38
6 -131 17 -205 26 -200 23 -534 63 -710 86 -47 6 -105 13 -130 16 -25 2 -155
18 -290 34 -135 16 -288 34 -340 40 -52 6 -147 17 -209 26 -63 8 -130 15 -148
15 -42 0 -50 12 -18 26 14 7 25 18 25 27 0 24 -46 48 -76 41 -18 -5 -30 -3
-36 6 -7 10 -12 9 -23 -6 -14 -18 -16 -18 -33 -3 -23 21 -41 21 -64 1 -13 -13
-21 -14 -31 -6 -7 6 -22 9 -34 6 -12 -3 -32 2 -46 11 -21 14 -29 14 -47 3 -18
-11 -23 -10 -35 6 -9 12 -21 17 -36 13 -11 -3 -31 -2 -44 3 -23 9 -25 25 -25
230 0 14 0 56 -1 94 l0 69 58 -7 c32 -3 127 -11 212 -16 85 -5 202 -14 260
-20 58 -5 180 -14 271 -20 91 -6 239 -17 330 -25 91 -8 235 -19 320 -25 85 -6
166 -12 180 -15 14 -2 70 -7 125 -10 102 -5 227 -14 550 -40 453 -36 482 -37
504 -26 11 7 21 17 22 24 0 7 2 23 3 37 4 35 -14 70 -38 74 -12 3 -115 12
-231 20 -209 16 -428 33 -790 61 -104 8 -284 21 -400 30 -115 9 -262 21 -325
26 -63 6 -178 14 -255 19 -77 5 -228 16 -335 24 -107 9 -233 18 -280 21 -47 3
-104 8 -127 11 l-43 5 0 176 0 175 83 -6 c94 -7 540 -26 637 -27 67 -1 538
-17 1275 -44 231 -8 517 -16 635 -17 l215 -3 13 28 c29 60 1 109 -63 111 -19
1 -20 8 -20 116 0 240 16 1526 21 1786 l6 270 62 -4 61 -3 73 -76 c40 -41 74
-73 75 -72 8 13 30 93 61 219 95 394 136 640 183 1095 22 217 25 972 5 1160
-19 174 -51 449 -58 493 -75 490 -202 982 -366 1417 -61 162 -123 315 -153
380 -13 28 -44 96 -69 153 -63 141 -166 337 -293 557 -19 33 -46 80 -60 105
-48 83 -273 419 -356 533 -77 103 -277 357 -301 383 -6 6 -40 44 -76 85 -357
406 -769 780 -1210 1096 -567 406 -1216 736 -1885 958 -584 193 -1172 308
-1770 344 -203 13 -823 9 -1010 -5z m400 -984 c391 -18 531 -33 865 -91 403
-70 864 -196 1195 -327 181 -72 254 -102 280 -116 17 -9 34 -16 38 -16 33 0
515 -251 717 -373 106 -64 438 -283 450 -296 3 -3 41 -33 85 -65 69 -51 257
-200 291 -231 6 -5 63 -55 127 -110 147 -126 444 -426 566 -570 52 -60 106
-124 122 -141 115 -130 443 -598 564 -804 249 -426 395 -747 580 -1275 33 -93
85 -267 85 -284 0 -10 -15 -12 -72 -6 -40 4 -84 12 -98 18 -14 5 -88 13 -165
18 -77 4 -176 13 -220 19 -54 7 -190 9 -420 4 l-340 -6 -115 26 c-63 14 -166
30 -229 36 -63 7 -125 16 -138 21 -13 5 -52 15 -87 23 -35 9 -113 39 -173 67
-59 28 -132 63 -161 77 -51 24 -112 83 -112 109 0 6 -27 45 -60 86 -33 41 -60
79 -60 84 0 12 -61 105 -74 115 -5 3 22 41 61 85 179 198 298 437 349 699 25
123 24 405 0 524 -104 505 -434 900 -899 1075 -265 99 -610 113 -897 34 -352
-96 -682 -362 -860 -692 l-42 -78 -64 2 c-35 1 -69 -3 -76 -8 -7 -6 -31 -14
-53 -17 -22 -4 -59 -14 -83 -22 -38 -12 -47 -12 -90 5 -87 33 -146 74 -167
116 -11 22 -32 60 -46 85 -15 25 -32 74 -38 109 -11 69 -46 129 -85 151 -13 7
-45 11 -70 9 l-46 -4 0 166 0 166 38 7 c20 3 59 6 86 6 66 0 96 27 96 84 -1
25 -8 50 -19 64 -17 20 -28 22 -105 22 l-86 0 0 99 c0 96 -1 100 -26 120 -36
29 -87 27 -117 -3 -20 -20 -25 -37 -31 -117 -4 -51 -9 -95 -11 -97 -2 -2 -41
-6 -87 -9 -103 -7 -128 -24 -128 -89 0 -70 19 -83 125 -86 l90 -3 -3 -145 c-4
-201 -4 -200 -56 -200 -43 0 -75 -17 -113 -60 -19 -21 -22 -37 -23 -105 0 -44
-3 -124 -7 -177 -5 -88 -8 -98 -25 -98 -11 0 -29 5 -41 12 -29 16 -524 30
-586 17 -47 -10 -66 -25 -213 -165 -82 -78 -89 -83 -159 -99 -41 -9 -80 -21
-87 -28 -8 -6 -35 -14 -60 -18 -26 -4 -65 -12 -87 -18 -22 -5 -121 -19 -220
-31 -229 -27 -210 -23 -281 -58 -33 -17 -72 -34 -87 -37 -14 -4 -31 -13 -38
-21 -6 -8 -19 -14 -28 -14 -9 0 -38 -20 -64 -45 -33 -30 -74 -54 -129 -75 -86
-33 -100 -33 -175 1 -34 15 -65 19 -165 19 -121 0 -125 -1 -171 -30 -26 -16
-52 -30 -56 -30 -11 0 -61 -58 -61 -71 0 -5 -13 -37 -30 -71 -16 -34 -30 -69
-30 -77 0 -9 -9 -31 -20 -49 -11 -18 -20 -46 -20 -62 0 -17 -4 -30 -10 -30 -5
0 -24 -21 -41 -47 -18 -27 -55 -73 -82 -103 -58 -66 -70 -92 -86 -189 -12 -78
-44 -183 -65 -216 -7 -11 -16 -33 -20 -50 -9 -36 -65 -113 -113 -155 l-36 -32
-256 3 c-181 2 -262 0 -276 -8 -42 -25 -94 -46 -190 -80 -117 -41 -164 -52
-222 -53 -91 0 -180 -49 -303 -165 -36 -33 -88 -77 -116 -98 -51 -37 -52 -37
-152 -37 -106 0 -149 -12 -207 -56 -18 -13 -35 -24 -39 -24 -5 0 -47 -19 -94
-42 l-87 -43 -240 0 c-265 1 -269 1 -404 68 l-84 42 -213 0 c-134 0 -214 4
-214 10 0 50 240 712 299 822 5 10 27 56 48 103 21 47 65 137 97 200 33 63 68
132 78 153 11 22 37 68 59 103 21 35 39 66 39 68 0 16 210 342 329 511 222
314 548 685 845 960 65 61 128 119 140 130 12 11 44 38 71 60 28 22 59 47 70
56 218 180 294 236 515 384 307 207 554 346 905 510 223 104 476 201 813 309
175 57 623 163 802 191 375 58 490 70 815 85 233 10 279 10 500 0z m2680
-1685 c307 -65 589 -228 759 -437 290 -359 382 -820 245 -1232 -33 -98 -133
-295 -189 -371 -63 -85 -149 -185 -159 -185 -5 0 -30 28 -56 63 -27 34 -86
101 -131 148 -46 47 -93 106 -104 130 -12 24 -27 54 -33 67 -7 13 -30 60 -52
105 -35 71 -47 87 -95 118 -30 20 -87 57 -126 82 -39 26 -74 47 -77 47 -4 0
-26 14 -49 30 -24 17 -74 51 -111 76 -38 26 -79 64 -93 86 -14 21 -40 55 -58
76 -18 20 -42 55 -54 77 -11 22 -45 66 -75 98 l-55 57 -109 1 c-59 0 -128 4
-153 9 -25 4 -91 16 -148 26 -102 17 -104 18 -140 62 -63 77 -114 119 -156
132 -23 6 -52 18 -64 27 -13 8 -39 20 -58 27 l-35 12 55 86 c109 174 233 297
410 407 149 93 352 166 531 191 88 13 288 5 380 -15z m-2018 -4757 c126 -95
257 -194 293 -221 63 -47 89 -77 57 -64 -9 3 -33 9 -54 12 -39 6 -177 29 -273
45 -30 5 -105 19 -166 30 -126 23 -166 19 -194 -19 -24 -32 -4 -7 -190 -237
-85 -105 -165 -204 -178 -220 -59 -76 -255 -316 -301 -370 -10 -12 -22 -28
-27 -36 -5 -8 -21 -30 -37 -48 l-27 -32 -153 -13 c-83 -7 -198 -16 -254 -19
l-103 -5 0 114 c0 102 2 117 20 135 24 24 26 76 5 106 -10 16 -29 23 -72 27
-32 3 -103 12 -158 20 -85 13 -158 23 -305 42 -14 2 -65 8 -115 15 -49 6 -137
17 -195 25 -58 8 -157 21 -220 29 -485 63 -593 77 -650 86 -36 5 -101 14 -145
20 -314 38 -383 49 -389 66 -4 10 -23 14 -64 14 -76 0 -86 -11 -163 -193 -33
-78 -70 -167 -83 -197 -13 -30 -40 -95 -61 -145 -20 -49 -50 -119 -65 -155
-16 -36 -52 -121 -80 -190 -46 -110 -70 -166 -151 -357 -16 -38 -21 -42 -61
-47 -23 -3 -95 -12 -158 -20 -63 -8 -178 -22 -255 -31 -77 -9 -174 -20 -215
-25 -41 -5 -102 -12 -135 -15 -33 -3 -91 -10 -130 -15 -38 -5 -99 -12 -135
-15 -36 -3 -101 -10 -145 -15 -44 -5 -152 -17 -240 -25 -88 -9 -172 -18 -187
-20 -74 -9 -1 20 300 119 437 144 430 142 447 181 11 28 62 81 209 219 17 16
75 71 128 123 l98 95 0 179 c0 199 -5 187 69 173 30 -6 31 -8 31 -61 0 -39 6
-63 21 -84 18 -26 26 -29 74 -29 51 0 57 3 94 43 37 40 45 44 133 61 51 9 104
20 117 23 30 7 29 0 -28 -157 -120 -331 -130 -361 -123 -397 7 -42 20 -53 63
-53 41 0 61 19 78 76 9 28 28 82 92 254 17 47 37 103 44 125 33 103 75 209 88
224 8 9 40 75 72 146 31 72 70 158 86 193 l29 63 53 -6 c28 -4 99 -13 157 -21
58 -9 158 -18 223 -21 l118 -6 29 28 30 29 0 178 0 178 35 0 35 0 0 -203 0
-203 30 -29 c29 -28 37 -30 128 -33 105 -4 69 -13 867 193 94 24 296 76 450
115 154 39 357 91 450 115 94 24 321 82 505 129 184 47 412 105 505 130 94 24
176 45 182 45 7 1 115 -76 240 -171z m83 -393 c146 -25 327 -55 403 -67 l137
-23 0 -56 c0 -65 -5 -69 -78 -69 -26 0 -103 -7 -172 -14 -69 -8 -170 -18 -225
-21 -55 -4 -115 -12 -132 -19 -18 -6 -79 -48 -135 -92 -57 -45 -143 -114 -193
-153 -49 -39 -99 -78 -110 -86 -11 -9 -33 -26 -48 -38 -16 -12 -97 -76 -180
-142 -211 -167 -205 -163 -283 -174 -85 -12 -221 -29 -294 -36 -30 -3 -86 -10
-124 -16 l-70 -10 -34 34 -34 34 159 12 c87 6 188 14 225 16 36 3 72 8 80 11
7 3 60 64 118 136 58 72 130 161 160 199 30 37 96 118 145 179 50 62 97 120
105 130 8 10 44 55 80 100 162 203 178 220 208 214 15 -2 146 -25 292 -49z
m4639 -207 c31 -17 103 -59 161 -93 58 -33 166 -96 240 -140 74 -43 200 -118
280 -165 80 -48 159 -95 175 -104 17 -9 48 -28 70 -41 22 -14 50 -31 63 -37
31 -16 28 -31 -5 -24 -16 3 -68 10 -118 16 -49 6 -128 17 -175 25 -47 7 -121
19 -165 25 -84 12 -350 54 -597 95 -81 14 -161 25 -177 25 -27 0 -51 17 -221
157 -2 2 2 16 10 31 20 35 83 52 108 28 12 -10 29 -14 52 -10 46 7 93 -10 88
-34 -2 -9 -14 -18 -26 -20 -30 -4 -39 -29 -19 -49 12 -13 21 -13 46 -5 19 7
33 7 36 1 4 -5 35 -9 70 -9 l65 0 -12 25 c-8 19 -8 31 0 50 16 35 27 31 58
-21 l28 -47 21 27 c11 14 31 26 43 26 12 0 22 6 22 14 0 10 -14 16 -42 18 -35
2 -43 7 -43 23 0 16 8 21 45 25 48 5 59 22 19 30 -13 3 -42 17 -65 31 -22 15
-49 29 -60 31 -14 3 -19 12 -19 38 0 28 -4 36 -21 38 -11 2 -27 -4 -34 -14
-12 -14 -12 -21 3 -47 11 -19 14 -34 8 -40 -16 -16 -45 -3 -59 26 -13 27 -36
35 -47 17 -14 -23 -25 -7 -25 39 0 54 11 64 59 55 16 -4 32 -1 35 5 13 20 68
11 125 -21z m-3249 -37 c0 -10 -7 -21 -15 -25 -22 -8 -18 -21 11 -34 19 -9 24
-17 19 -32 -6 -18 -2 -20 40 -20 25 0 56 5 67 11 27 14 43 -2 34 -35 -7 -30
-46 -44 -80 -28 -35 16 -54 0 -37 -31 11 -21 11 -28 -4 -51 -24 -36 -10 -50
34 -35 24 9 39 9 58 0 21 -10 29 -9 44 5 23 21 51 15 64 -14 13 -29 42 -38 64
-18 21 19 58 21 63 4 5 -14 38 -3 38 12 0 6 -17 26 -37 45 -32 29 -36 38 -27
52 6 10 23 19 38 21 22 3 26 0 26 -22 0 -27 15 -43 25 -26 3 5 19 10 34 10 16
0 34 7 42 16 9 11 22 14 46 9 25 -4 35 -2 39 10 3 8 14 15 24 15 32 0 34 21 4
45 -30 25 -22 37 21 32 21 -2 25 20 10 56 -6 14 -2 17 29 17 27 0 39 -6 52
-24 13 -22 19 -23 40 -14 21 10 26 8 45 -16 18 -23 28 -27 63 -24 l41 3 12
-48 c6 -26 25 -64 42 -83 17 -19 31 -40 31 -47 0 -7 -14 -33 -30 -59 -35 -55
-65 -63 -80 -22 -7 18 -15 24 -27 20 -9 -4 -24 1 -34 10 -15 14 -22 14 -54 3
-28 -11 -40 -11 -55 -1 -30 18 -33 15 -26 -23 9 -44 -15 -58 -42 -26 -26 31
-64 32 -72 1 -9 -38 -45 -34 -45 5 0 25 -4 30 -25 30 -14 0 -35 6 -47 13 -23
13 -35 5 -40 -28 -1 -8 -12 -23 -23 -32 -12 -10 -23 -26 -24 -35 -2 -10 -13
-19 -24 -21 -18 -3 -22 2 -22 22 0 32 -17 42 -39 22 -14 -13 -27 -14 -76 -6
-53 9 -61 8 -80 -10 -12 -11 -29 -20 -37 -20 -23 0 -78 -33 -78 -46 0 -16 62
-62 94 -70 21 -5 33 -1 52 17 21 20 27 21 34 9 20 -31 11 -61 -20 -71 -24 -9
-30 -17 -30 -40 0 -38 -16 -45 -145 -58 -229 -24 -383 -41 -485 -52 -58 -6
-125 -13 -150 -15 -25 -2 -106 -10 -180 -19 -164 -18 -499 -53 -634 -65 -54
-5 -133 -14 -175 -20 -42 -5 -101 -12 -131 -14 -53 -4 -102 -9 -405 -42 -77
-8 -203 -21 -280 -30 -77 -8 -180 -19 -228 -25 -60 -6 -145 -6 -260 0 -95 6
-307 18 -472 26 -165 8 -421 22 -570 30 -148 8 -362 20 -475 26 -113 6 -206
11 -206 12 -1 1 -55 83 -119 182 -65 99 -143 218 -173 265 -176 268 -231 355
-228 358 2 1 32 -1 67 -7 78 -12 196 -28 264 -36 28 -3 100 -12 160 -20 261
-36 325 -44 415 -55 52 -6 140 -18 195 -25 55 -8 154 -21 220 -30 66 -9 167
-22 225 -30 240 -31 347 -45 375 -47 l30 -3 3 -187 2 -188 128 -116 127 -116
90 6 c50 4 135 13 190 21 55 7 169 22 252 31 l152 18 113 88 c62 49 180 142
261 206 82 64 156 123 165 130 10 7 69 53 132 103 207 164 189 154 325 167 66
7 152 15 190 18 73 6 242 26 380 44 80 11 377 58 535 85 47 8 99 16 115 18 17
2 36 5 43 6 6 0 12 -8 12 -18z m-5311 -148 c69 -107 76 -121 36 -75 -27 31
-44 42 -66 42 -33 0 -69 -31 -69 -59 0 -22 -80 -165 -88 -157 -3 3 2 21 11 38
9 18 30 67 47 108 48 117 73 170 79 170 4 0 26 -30 50 -67z m8 -213 c20 -30
217 -275 225 -278 5 -2 8 -9 8 -15 0 -7 32 -50 72 -97 74 -88 208 -264 208
-273 0 -6 -79 -18 -530 -76 -190 -25 -368 -49 -437 -60 -29 -4 -53 -7 -53 -5
0 11 44 91 141 254 63 107 144 244 180 305 35 60 70 118 76 130 7 11 16 28 19
38 3 9 9 17 13 17 4 0 15 18 25 40 19 44 35 50 53 20z m8043 -32 c0 -5 -15 -8
-32 -9 -18 0 -53 -2 -78 -5 -43 -4 -44 -4 -23 11 12 9 37 22 55 29 28 12 35
12 55 -3 12 -9 23 -19 23 -23z m-1955 -68 c4 -6 19 -9 35 -8 16 1 37 -6 48
-15 16 -14 24 -15 51 -6 18 6 34 10 36 8 15 -16 65 -83 65 -88 0 -4 -15 -7
-34 -8 -18 -1 -73 -6 -122 -12 -167 -20 -195 -21 -192 -3 2 9 17 21 33 25 69
21 84 44 35 54 -36 7 -48 26 -30 48 14 17 66 20 75 5z m2103 -106 l3 -61 -103
-7 c-57 -4 -130 -11 -163 -16 -33 -5 -99 -11 -147 -15 l-87 -7 -3 48 c-3 52
-25 72 -30 27 -3 -26 -6 -28 -46 -28 -26 0 -46 -6 -51 -14 -8 -12 -19 -12 -77
2 -133 33 -108 61 61 71 28 1 104 8 170 16 66 7 185 20 265 29 219 24 204 28
208 -45z m389 21 c153 -25 289 -48 303 -50 165 -26 532 -77 730 -100 74 -9
135 -17 136 -18 4 -4 -15 -1748 -22 -1984 l-7 -252 -81 -3 c-45 -2 -200 2
-346 9 -146 7 -420 17 -609 22 -189 6 -345 12 -348 14 -4 5 -6 54 -23 782 -13
529 -29 1198 -35 1443 -4 153 -2 182 10 182 8 0 139 -20 292 -45z m-2137 -145
c0 -6 -12 -15 -27 -21 -35 -14 -13 -24 25 -11 36 12 52 5 52 -23 0 -13 5 -27
10 -30 21 -13 8 -25 -27 -25 -21 0 -94 -6 -163 -14 -69 -9 -197 -23 -285 -32
-88 -9 -205 -22 -260 -29 -103 -13 -124 -11 -90 9 37 21 85 74 85 94 0 15 9
21 43 25 23 3 46 2 51 -3 6 -6 14 -6 20 0 7 5 79 16 161 25 83 9 197 22 255
30 137 17 150 17 150 5z m1751 -131 c4 -30 7 -144 8 -254 1 -110 6 -330 11
-490 5 -159 12 -402 14 -540 3 -137 9 -373 12 -524 l7 -273 -279 6 c-153 4
-367 11 -474 16 -107 5 -254 10 -327 10 l-132 0 -5 33 c-9 59 -17 121 -26 202
-5 44 -15 134 -23 200 -8 66 -15 183 -15 260 -1 77 -6 154 -12 170 -5 17 -12
75 -14 130 -3 55 -12 123 -20 151 -28 101 -21 315 14 444 42 151 65 190 111
190 15 0 29 5 31 11 2 6 28 15 57 21 44 8 57 7 69 -6 13 -12 13 -18 2 -30 -7
-9 -20 -16 -29 -16 -31 0 -112 -32 -118 -46 -8 -22 16 -45 42 -38 17 4 26 0
35 -15 14 -27 26 -27 33 0 4 13 12 20 23 17 24 -4 29 -67 6 -84 -21 -15 -8
-61 21 -70 12 -4 37 -6 56 -5 31 2 33 0 27 -24 -6 -22 -2 -28 26 -39 37 -16
46 -13 58 19 6 16 19 25 37 27 22 2 28 8 28 28 0 20 7 26 30 30 16 3 28 8 27
13 -1 4 -2 11 -2 16 0 5 -9 11 -20 14 -44 11 -1 62 53 62 40 0 47 26 18 66
-26 35 -27 61 -1 84 26 24 25 37 -4 64 -23 21 -26 22 -49 7 -21 -14 -26 -14
-36 -2 -10 11 -6 20 21 45 40 38 78 42 78 8 0 -22 4 -23 57 -23 51 1 59 4 70
26 7 14 13 46 13 71 l0 46 118 12 c64 7 162 18 217 25 154 18 149 19 156 -45z
m-2546 29 c7 -6 0 -17 -17 -32 -16 -12 -28 -31 -28 -42 0 -22 17 -19 -375 -64
-44 -5 -116 -12 -160 -15 -44 -3 -111 -10 -150 -15 -71 -10 -87 -11 -280 -29
-60 -6 -191 -20 -290 -30 -99 -11 -229 -25 -290 -31 -60 -6 -173 -17 -250 -25
-77 -8 -203 -21 -280 -29 -77 -8 -205 -22 -285 -30 -514 -55 -621 -62 -725
-46 -44 6 -141 20 -215 31 -74 11 -180 26 -235 34 -55 8 -183 26 -285 40 -102
14 -203 30 -225 35 -38 9 -37 9 15 5 30 -2 118 -7 195 -10 77 -3 251 -13 388
-21 256 -17 525 -15 672 4 80 11 251 29 530 57 83 9 188 20 235 25 164 18 366
40 425 45 60 5 134 13 380 40 122 13 292 31 395 41 46 4 196 21 452 50 80 9
168 15 195 13 26 -1 55 0 63 4 8 3 22 8 30 10 22 7 103 -4 115 -15z m815 -68
c0 -5 -4 -10 -9 -10 -6 0 -13 5 -16 10 -3 6 1 10 9 10 9 0 16 -4 16 -10z m65
-111 l0 -34 -70 -2 c-158 -5 -275 -15 -283 -26 -5 -7 -12 -145 -16 -307 -3
-162 -11 -497 -16 -745 -5 -247 -12 -517 -15 -599 l-5 -148 -112 1 c-62 1
-114 4 -118 6 -3 2 -196 9 -429 15 -233 6 -433 15 -445 20 -21 8 -21 8 -15
336 22 1151 23 1309 7 1321 -12 10 -46 10 -169 -2 -85 -8 -175 -15 -200 -15
-28 0 -51 -6 -59 -14 -8 -11 -14 -131 -21 -413 -12 -500 -28 -1128 -28 -1129
-3 -6 -110 -15 -231 -19 -80 -3 -221 -10 -313 -16 -93 -6 -175 -8 -183 -5 -12
5 -14 111 -14 729 0 549 -3 726 -12 735 -17 17 -292 17 -306 0 -13 -17 -21
-249 -32 -901 -5 -302 -10 -551 -12 -553 -3 -2 -107 0 -234 5 l-229 8 -69 34
-68 34 3 672 4 673 35 0 c19 0 94 6 165 14 72 9 198 22 280 31 83 9 188 20
235 25 47 5 121 12 165 15 44 3 109 10 145 15 36 5 90 11 120 14 215 20 395
38 450 46 36 5 99 12 140 15 41 3 116 10 165 15 111 13 132 15 270 29 292 30
584 61 820 86 72 8 182 19 245 25 161 15 394 41 398 44 1 2 15 2 30 1 24 -1
27 -5 27 -36z m-9260 -9 c99 -6 260 -18 358 -26 99 -8 209 -14 245 -15 72 0
119 -12 92 -23 -8 -3 -85 -28 -170 -56 -85 -28 -164 -55 -175 -60 -55 -23
-487 -161 -492 -157 -9 10 -122 345 -117 350 3 3 22 3 42 1 20 -2 118 -8 217
-14z m-405 -80 c0 -5 -4 -10 -10 -10 -5 0 -10 5 -10 10 0 6 5 10 10 10 6 0 10
-4 10 -10z m4096 -65 l51 -6 -4 -697 c-3 -383 -8 -700 -12 -704 -7 -8 -462 6
-706 22 -82 5 -165 10 -182 10 l-33 0 0 134 0 134 48 6 c82 12 79 8 86 104 16
203 25 646 14 659 -6 8 -34 13 -74 13 l-63 0 -3 118 c-2 64 -7 124 -11 134 -7
14 1 17 60 23 37 4 77 9 88 10 11 2 58 8 105 15 173 23 285 42 292 48 7 7 225
-8 344 -23z m299 -25 c44 -5 112 -12 150 -15 39 -3 99 -11 135 -16 36 -6 79
-12 95 -14 17 -2 98 -13 180 -25 83 -11 182 -25 220 -30 39 -5 95 -14 125 -19
30 -6 111 -17 180 -26 190 -24 233 -34 225 -53 -5 -15 -15 -212 -30 -642 -3
-80 -10 -217 -15 -305 -6 -88 -10 -192 -10 -232 0 -39 -4 -75 -10 -78 -5 -3
-141 1 -302 9 -462 24 -746 36 -833 36 -44 0 -85 4 -91 8 -11 7 -4 668 11 963
10 192 16 183 -111 176 l-104 -6 0 140 0 139 53 0 c29 0 88 -4 132 -10z
m-1293 -68 c-1 -6 -7 -294 -14 -640 -7 -392 -15 -630 -22 -634 -5 -3 -35 -4
-65 -2 -149 11 -425 24 -522 24 -67 0 -110 4 -115 11 -3 6 -9 57 -11 113 -5
83 -3 104 10 114 8 7 57 17 108 23 52 6 97 15 100 21 11 17 21 314 17 488 l-3
155 -95 -4 c-52 -2 -100 -7 -107 -13 -12 -10 -23 -72 -25 -150 -1 -26 -4 -46
-7 -44 -3 2 -6 111 -6 243 l0 238 84 12 c59 8 90 9 104 2 19 -11 42 -8 422 45
116 16 151 16 147 -2z m-3099 -152 c49 -113 70 -140 108 -140 l30 0 -6 -102
c-2 -57 -7 -227 -11 -378 -11 -525 -13 -565 -27 -561 -6 1 -70 4 -142 6 -71 1
-139 6 -150 10 -11 4 -32 11 -47 17 l-28 10 0 147 c0 80 7 272 15 426 8 154
15 322 15 373 l0 93 93 94 c50 51 97 94 102 94 6 0 27 -40 48 -89z m2208 -350
c-1 -212 -4 -455 -7 -540 l-7 -155 -136 3 c-178 3 -400 18 -409 26 -3 4 -8
229 -9 501 -4 469 -3 494 14 493 10 -1 65 4 123 11 133 15 337 40 370 45 66
10 61 41 61 -384z m-711 190 l0 -120 -34 0 c-69 0 -70 -5 -63 -280 3 -135 9
-253 13 -263 4 -11 26 -27 50 -37 35 -16 44 -25 49 -53 4 -18 5 -48 3 -66 l-3
-33 -130 1 c-71 1 -172 4 -224 8 l-94 6 7 206 c4 113 11 315 15 448 4 134 10
246 14 249 7 7 162 29 302 43 44 5 83 9 88 10 4 0 7 -53 7 -119z m-543 -167
c-17 -582 -20 -655 -31 -659 -6 -2 -76 -1 -156 4 l-145 7 2 280 c2 154 3 344
3 422 0 140 0 143 23 148 19 5 197 19 281 24 l29 1 -6 -227z m-465 -345 c-2
-293 -6 -535 -8 -537 -4 -4 -246 17 -249 22 -1 1 2 48 6 105 5 57 13 287 18
513 5 225 13 413 16 419 4 6 52 10 114 10 l108 0 -5 -532z m435 -471 c1 -1 3
-24 4 -51 l3 -50 -59 3 c-33 1 -98 6 -145 11 -47 6 -92 10 -100 10 -12 0 -14
10 -11 46 l3 47 152 -8 c83 -3 152 -7 153 -8z m358 -12 c72 -3 154 -8 183 -12
51 -5 52 -6 52 -38 0 -42 22 -65 62 -65 40 0 68 25 68 61 0 15 5 31 10 34 10
6 379 -10 488 -21 l52 -5 0 -46 c0 -50 20 -83 52 -83 10 0 18 -5 18 -11 0 -7
-12 -9 -32 -6 -18 4 -71 9 -118 12 -112 8 -430 32 -655 50 -99 8 -225 17 -280
20 -138 9 -136 8 -129 58 9 69 10 69 56 63 24 -3 102 -8 173 -11z m1445 -65
c113 -6 237 -12 275 -13 l70 -2 3 -89 3 -88 -53 6 c-123 13 -553 46 -638 48
-70 1 -75 4 -50 35 13 17 20 41 20 68 0 23 3 45 8 49 4 5 41 5 82 2 41 -3 167
-10 280 -16z m905 -40 c143 -5 306 -12 363 -16 l102 -7 0 -62 0 -61 -167 -17
c-91 -10 -172 -22 -179 -28 -8 -7 -47 -7 -121 0 -59 6 -181 15 -271 22 -144
10 -162 14 -156 28 4 9 9 48 11 86 1 39 2 72 3 74 0 2 35 1 78 -3 42 -4 194
-11 337 -16z m1030 -45 c61 -4 137 -8 170 -10 33 -2 98 -4 144 -4 46 -1 82 -3
80 -5 -2 -3 -63 -10 -134 -16 -72 -6 -204 -17 -295 -25 -91 -8 -201 -17 -245
-20 -44 -3 -97 -8 -117 -11 l-38 -6 0 56 0 55 163 -4 c89 -2 212 -7 272 -10z
m-4315 -45 c151 -11 361 -26 465 -35 105 -8 282 -21 395 -30 213 -16 437 -34
770 -60 107 -8 287 -22 400 -30 654 -49 858 -64 1055 -80 99 -8 227 -18 285
-21 58 -3 112 -7 120 -9 8 -3 85 -9 170 -15 85 -5 211 -14 280 -20 277 -22
513 -40 660 -50 85 -6 265 -20 400 -30 456 -37 615 -49 770 -60 145 -11 252
-19 725 -55 105 -8 282 -21 395 -30 186 -14 294 -22 705 -55 72 -6 171 -13
220 -15 50 -3 137 -10 195 -15 58 -6 143 -12 190 -15 47 -3 141 -9 210 -15 69
-5 215 -16 325 -25 110 -8 286 -22 390 -30 105 -8 229 -18 277 -21 l86 -6 7
-103 c4 -57 4 -108 0 -115 -4 -6 -7 -49 -6 -95 0 -76 -3 -86 -22 -100 -28 -19
-71 -19 -87 0 -10 12 -16 13 -28 3 -8 -7 -24 -12 -36 -10 -12 1 -77 9 -146 17
-69 9 -199 25 -290 36 -91 11 -187 22 -215 24 -27 3 -84 9 -125 15 -79 10
-246 30 -455 55 -69 8 -182 22 -252 30 -71 9 -180 22 -243 30 -63 7 -162 19
-220 25 -58 6 -152 18 -210 26 -58 7 -132 16 -165 19 -33 3 -103 12 -155 20
-52 7 -144 19 -205 25 -60 6 -159 17 -220 25 -60 7 -173 21 -250 30 -77 9
-189 22 -250 30 -60 8 -130 16 -155 19 -61 6 -457 53 -550 66 -41 6 -100 12
-130 15 -30 3 -91 10 -135 16 -44 6 -96 12 -115 13 -35 3 -117 13 -340 41 -63
8 -173 21 -245 30 -71 8 -184 22 -250 30 -66 8 -178 21 -250 30 -71 8 -168 20
-215 25 -47 6 -161 19 -255 30 -93 11 -206 25 -250 30 -152 19 -320 39 -455
55 -177 21 -353 42 -465 56 -49 6 -108 13 -130 15 -40 4 -457 55 -610 74 -44
5 -141 16 -215 25 -74 8 -189 22 -255 30 -66 8 -178 21 -250 30 -71 8 -184 22
-250 30 -341 42 -418 51 -640 76 -55 6 -107 15 -115 20 -10 7 1 8 35 5 28 -3
174 -15 325 -26z m5683 -89 c42 -18 90 -22 420 -35 405 -17 1060 -40 1587 -56
184 -6 517 -17 740 -25 223 -8 552 -20 731 -26 322 -12 327 -12 327 -33 -1
-12 3 -88 7 -170 8 -143 8 -148 -11 -143 -10 3 -89 10 -174 17 -85 6 -236 17
-335 25 -440 35 -924 72 -1105 85 -80 5 -234 17 -342 25 -109 8 -287 22 -395
30 -109 8 -283 22 -388 30 -104 8 -282 21 -395 30 -113 9 -259 20 -325 25 -66
6 -160 13 -210 15 -49 3 -133 10 -185 15 -52 6 -135 12 -185 15 -49 3 -173 12
-275 20 -102 8 -273 22 -380 30 -107 9 -249 20 -315 25 -66 6 -144 10 -172 10
-29 0 -53 4 -53 9 0 5 31 9 70 10 38 0 80 3 92 5 13 3 91 10 173 16 83 6 191
15 240 20 50 5 185 16 300 26 116 9 244 19 285 24 113 11 219 4 273 -19z
m-220 -868 c-7 -2 -21 -2 -30 0 -10 3 -4 5 12 5 17 0 24 -2 18 -5z m-593 -13
c11 -7 5 -8 -20 -4 -43 8 -51 14 -19 14 13 0 31 -5 39 -10z m80 0 c11 -8 7 -9
-15 -4 -37 8 -45 14 -19 14 10 0 26 -5 34 -10z m113 3 c-13 -2 -33 -2 -45 0
-13 2 -3 4 22 4 25 0 35 -2 23 -4z m92 -3 c7 -12 -2 -12 -30 0 -19 8 -19 9 2
9 12 1 25 -3 28 -9z m78 3 c-7 -2 -21 -2 -30 0 -10 3 -4 5 12 5 17 0 24 -2 18
-5z m90 0 c-13 -2 -33 -2 -45 0 -13 2 -3 4 22 4 25 0 35 -2 23 -4z m277 -1 c0
-4 -28 -8 -62 -9 -43 -2 -58 1 -48 7 18 11 110 13 110 2z m177 2 c-3 -3 -12
-4 -19 -1 -8 3 -5 6 6 6 11 1 17 -2 13 -5z m-1110 -10 c-3 -3 -12 -4 -19 -1
-8 3 -5 6 6 6 11 1 17 -2 13 -5z m-247 -14 c0 -5 -9 -10 -20 -10 -11 0 -20 5
-20 10 0 6 9 10 20 10 11 0 20 -4 20 -10z m103 -7 c-13 -2 -33 -2 -45 0 -13 2
-3 4 22 4 25 0 35 -2 23 -4z m2322 -4 c3 -3 -13 -13 -35 -22 -22 -8 -40 -11
-40 -6 0 5 7 9 15 9 8 0 15 4 15 9 0 4 -18 3 -39 -2 -35 -10 -38 -12 -23 -24
21 -16 0 -18 -29 -2 -25 13 -16 29 17 29 13 0 24 5 24 10 0 10 84 9 95 -1z
m-2780 -9 c3 -5 17 -10 31 -10 13 0 24 -4 24 -10 0 -6 -37 -10 -92 -9 -61 0
-86 3 -73 9 19 8 18 9 -5 11 -14 1 2 5 35 9 33 4 63 7 67 8 4 1 10 -2 13 -8z
m197 -6 c7 -4 35 -8 62 -9 30 0 51 -5 54 -13 6 -18 -107 -17 -114 1 -3 8 -10
14 -17 15 -7 1 -34 6 -62 12 l-50 9 57 -4 c32 -2 63 -7 70 -11z m2375 2 c4 -3
-11 -7 -33 -7 -38 -1 -38 -2 -9 -9 27 -7 25 -8 -18 -9 -27 0 -46 -4 -44 -8 3
-5 -9 -9 -26 -10 -29 -2 -29 -2 -11 11 11 8 31 16 44 19 19 3 15 5 -12 6 -28
1 -41 -5 -54 -21 -11 -16 -15 -17 -11 -5 7 18 -12 24 -28 8 -17 -16 -90 -17
-81 -2 6 10 101 27 125 22 7 -1 10 2 7 7 -6 11 140 9 151 -2z m273 4 c0 -5 -9
-10 -21 -10 -11 0 -17 5 -14 10 3 6 13 10 21 10 8 0 14 -4 14 -10z m-2995 -21
c6 -7 0 -6 -17 0 -15 6 -35 8 -45 4 -11 -4 -14 -3 -9 6 9 14 54 7 71 -10z
m645 -9 c0 -15 -6 -17 -42 -14 -105 11 -128 16 -128 25 0 10 33 11 106 0 44
-6 51 -5 46 8 -3 9 -1 12 6 7 7 -4 12 -15 12 -26z m2420 26 c0 -2 -11 -6 -25
-8 -13 -3 -22 -1 -19 3 5 9 44 13 44 5z m-57 -21 c66 -8 76 -20 17 -20 -22 0
-40 3 -40 7 0 5 -5 8 -11 8 -5 0 -8 -4 -4 -9 3 -6 -3 -9 -14 -8 -10 0 -17 7
-14 13 3 9 -3 11 -19 7 -18 -4 -20 -3 -8 6 8 6 20 9 26 7 6 -2 36 -7 67 -11z
m-3188 -5 l-30 -8 30 -2 c17 -1 24 -4 17 -7 -18 -7 -62 5 -62 17 0 6 17 9 38
9 37 -1 37 -1 7 -9z m915 6 c0 -2 -7 -9 -15 -16 -12 -10 -15 -10 -15 4 0 9 7
16 15 16 8 0 15 -2 15 -4z m1605 -6 c-3 -6 -31 -10 -61 -10 -72 0 -63 14 11
17 34 2 54 -1 50 -7z m70 0 c3 -5 -1 -10 -9 -10 -9 0 -16 5 -16 10 0 6 4 10 9
10 6 0 13 -4 16 -10z m332 4 c-3 -3 -12 -4 -19 -1 -8 3 -5 6 6 6 11 1 17 -2
13 -5z m370 0 c-3 -3 -12 -4 -19 -1 -8 3 -5 6 6 6 11 1 17 -2 13 -5z m75 -12
c-7 -2 -10 -8 -6 -13 3 -5 -13 -9 -36 -9 -25 0 -39 4 -35 10 3 6 19 10 36 10
16 0 29 5 29 11 0 5 5 7 12 3 9 -6 9 -9 0 -12z m-3212 1 c0 -5 -11 -8 -24 -8
-13 0 -22 3 -19 8 2 4 13 7 24 7 10 0 19 -3 19 -7z m-352 -10 c-10 -2 -26 -2
-35 0 -10 3 -2 5 17 5 19 0 27 -2 18 -5z m90 0 c-10 -2 -26 -2 -35 0 -10 3 -2
5 17 5 19 0 27 -2 18 -5z m185 0 c-7 -2 -21 -2 -30 0 -10 3 -4 5 12 5 17 0 24
-2 18 -5z m220 0 c-7 -2 -19 -2 -25 0 -7 3 -2 5 12 5 14 0 19 -2 13 -5z m204
1 c-3 -3 -12 -4 -19 -1 -8 3 -5 6 6 6 11 1 17 -2 13 -5z m2439 -2 c-15 -3 -16
-6 -5 -13 22 -14 -9 -11 -56 5 l-40 14 60 -1 c33 -1 51 -3 41 -5z m512 1 c-10
-2 -28 -2 -40 0 -13 2 -5 4 17 4 22 1 32 -1 23 -4z m-3928 -33 c0 -5 14 -10
32 -10 42 0 33 -6 -22 -13 -30 -4 -38 -3 -25 3 18 8 18 9 2 9 -18 1 -14 21 4
21 5 0 9 -4 9 -10z m4050 0 c11 -7 7 -10 -17 -10 -18 0 -33 5 -33 10 0 13 30
13 50 0z m-4107 -7 c-13 -2 -23 -11 -23 -19 0 -8 -5 -14 -10 -14 -7 0 -7 6 0
20 6 12 20 19 33 19 l22 -2 -22 -4z m4207 -9 c0 -2 -9 -4 -21 -4 -11 0 -18 4
-14 10 5 8 35 3 35 -6z m93 -4 c-3 -12 -21 -15 -86 -16 -45 0 -63 1 -39 3 23
2 42 9 42 14 0 6 9 8 19 4 11 -3 22 -2 24 2 10 16 44 10 40 -7z m-4358 5 c-28
-11 -115 -21 -115 -14 0 4 17 10 38 12 52 5 89 6 77 2z m3370 -5 c-3 -5 -17
-10 -31 -10 -13 0 -24 5 -24 10 0 6 14 10 31 10 17 0 28 -4 24 -10z m452 4
c-3 -3 -12 -4 -19 -1 -8 3 -5 6 6 6 11 1 17 -2 13 -5z m569 -21 c-10 -10 -19
5 -10 18 6 11 8 11 12 0 2 -7 1 -15 -2 -18z m171 11 c-3 -3 -12 -4 -19 -1 -8
3 -5 6 6 6 11 1 17 -2 13 -5z m-4773 -16 c-5 -8 -2 -9 12 -3 10 4 33 9 49 11
28 3 29 3 5 -5 l-25 -9 27 -1 c15 -1 30 -5 33 -11 4 -6 -27 -10 -85 -10 -58 0
-89 4 -85 10 3 6 1 10 -6 10 -7 0 -9 3 -6 6 4 4 12 2 20 -4 9 -8 19 -7 37 3
32 17 32 17 24 3z m196 1 c0 -5 4 -8 9 -5 14 9 41 -4 41 -20 0 -17 -49 -19
-85 -2 -30 13 -34 33 -5 25 11 -3 18 -1 14 4 -3 5 2 9 10 9 9 0 16 -5 16 -11z
m4505 1 c-3 -5 8 -9 27 -9 18 0 49 -4 68 -10 29 -7 19 -9 -58 -10 -90 -1 -92
0 -80 19 7 11 21 20 31 20 10 0 15 -4 12 -10z m-4408 -6 c-3 -3 -12 -4 -19 -1
-8 3 -5 6 6 6 11 1 17 -2 13 -5z m4227 -6 c-5 -8 2 -9 27 -4 20 4 29 3 24 -3
-12 -10 -104 -21 -122 -14 -24 9 -13 22 20 26 17 2 38 5 45 5 8 1 10 -3 6 -10z
m293 6 c-3 -3 -12 -4 -19 -1 -8 3 -5 6 6 6 11 1 17 -2 13 -5z m107 -25 c-8
-14 -34 -10 -34 5 0 9 7 12 20 9 11 -3 17 -9 14 -14z m-5074 -18 c3 -2 -5 -1
-18 2 -14 3 -25 0 -31 -11 -5 -9 -13 -14 -17 -9 -4 4 1 16 11 27 18 20 23 19
55 -9z m5290 7 c0 -16 -3 -19 -11 -11 -6 6 -8 16 -5 22 11 17 16 13 16 -11z
m40 -9 c0 -5 -7 -9 -15 -9 -15 0 -20 12 -9 23 8 8 24 -1 24 -14z m86 12 c-3
-5 -15 -11 -26 -14 -17 -4 -19 -3 -9 9 12 15 44 20 35 5z m84 -11 c0 -5 -4
-10 -9 -10 -6 0 -13 5 -16 10 -3 6 1 10 9 10 9 0 16 -4 16 -10z m-5650 -9 c0
-4 -11 -6 -25 -3 -14 2 -25 6 -25 8 0 2 11 4 25 4 14 0 25 -4 25 -9z m5585 -1
c-3 -5 -14 -10 -23 -9 -14 0 -13 2 3 9 27 11 27 11 20 0z m-5676 -13 c8 -11 4
-13 -22 -9 -27 4 -29 6 -12 13 11 4 21 8 21 8 1 1 6 -5 13 -12z m-76 -18 c-14
-14 -70 -20 -95 -10 -22 9 -22 10 7 12 17 2 40 2 53 1 12 0 22 4 22 9 0 6 5 7
11 3 6 -3 7 -10 2 -15z m237 11 c13 -9 13 -10 0 -9 -8 1 -26 5 -40 9 l-25 8
25 1 c14 0 32 -4 40 -9z m5443 3 c-7 -2 -19 -2 -25 0 -7 3 -2 5 12 5 14 0 19
-2 13 -5z m-33 -28 c0 -3 -14 -5 -31 -5 -27 0 -30 2 -19 15 9 11 17 12 31 4
10 -5 19 -12 19 -14z m257 19 c-3 -3 -12 -4 -19 -1 -8 3 -5 6 6 6 11 1 17 -2
13 -5z m39 -3 c-4 -5 0 -12 6 -14 8 -4 7 -6 -3 -6 -9 -1 -19 6 -23 14 -3 9 0
15 10 15 8 0 13 -4 10 -9z m1772 0 c9 -5 26 -12 36 -16 33 -10 11 -15 -37 -9
-38 6 -45 9 -36 20 14 17 14 17 37 5z m-1633 -21 c3 -5 1 -10 -4 -10 -6 0 -11
5 -11 10 0 6 2 10 4 10 3 0 8 -4 11 -10z m-6205 -14 c0 -9 7 -16 16 -16 8 0
22 -7 30 -15 19 -19 14 -19 -36 1 -22 9 -46 14 -54 11 -7 -3 -19 0 -26 6 -9 9
-11 9 -6 0 3 -6 -6 -15 -24 -22 -18 -6 -28 -6 -25 -1 9 14 -19 12 -33 -2 -9
-9 -12 -9 -12 0 0 6 12 14 28 18 41 9 49 12 30 13 -10 1 -18 4 -18 9 0 4 29 8
65 10 53 3 65 0 65 -12z m435 4 c-3 -5 -11 -10 -16 -10 -6 0 -7 5 -4 10 3 6
11 10 16 10 6 0 7 -4 4 -10z m-635 -35 c-6 -11 -110 -14 -110 -3 0 8 45 16 85
14 17 0 28 -5 25 -11z m6884 -42 c14 -4 16 -2 10 8 -6 12 -5 12 9 0 25 -20 22
-22 -35 -19 -33 2 -53 8 -56 17 -5 14 12 12 72 -6z m154 -13 c36 -6 68 -12 69
-14 8 -7 -89 -15 -119 -10 -25 4 -29 3 -18 -5 9 -7 10 -11 3 -11 -16 0 -26 17
-13 25 6 4 7 11 4 17 -4 6 -10 5 -15 -3 -7 -11 -9 -10 -9 5 0 12 5 16 16 12 8
-3 45 -11 82 -16z m-7315 3 c-7 -2 -21 -2 -30 0 -10 3 -4 5 12 5 17 0 24 -2
18 -5z m-60 -10 c-7 -2 -19 -2 -25 0 -7 3 -2 5 12 5 14 0 19 -2 13 -5z m-47
-14 c3 -6 18 -9 33 -6 15 3 32 2 39 -1 6 -4 -23 -8 -64 -9 -64 -1 -73 1 -63
13 14 17 45 19 55 3z m7268 -4 c-4 -8 -11 -15 -16 -15 -6 0 -5 6 2 15 7 8 14
15 16 15 2 0 1 -7 -2 -15z m311 -5 c11 -5 16 -9 10 -10 -5 -1 -1 -5 10 -10 16
-7 17 -9 3 -9 -9 -1 -20 4 -23 9 -4 6 -12 7 -18 3 -21 -13 -55 -11 -61 3 -3 9
-1 12 4 9 6 -3 10 -1 10 4 0 13 37 13 65 1z m-7688 -6 c-3 -3 -12 -4 -19 -1
-8 3 -5 6 6 6 11 1 17 -2 13 -5z m7798 -24 c3 -5 -1 -10 -9 -10 -9 0 -16 5
-16 10 0 6 4 10 9 10 6 0 13 -4 16 -10z m-7909 -27 c-10 -10 -19 5 -10 18 6
11 8 11 12 0 2 -7 1 -15 -2 -18z m-49 11 c-3 -3 -12 -4 -19 -1 -8 3 -5 6 6 6
11 1 17 -2 13 -5z m3533 -9 c0 -11 -11 -15 -40 -15 -51 0 -53 17 -2 23 20 2
38 4 40 5 1 1 2 -5 2 -13z m4173 8 c-7 -2 -19 -2 -25 0 -7 3 -2 5 12 5 14 0
19 -2 13 -5z m331 -8 c3 -8 1 -15 -4 -15 -6 0 -10 7 -10 15 0 8 2 15 4 15 2 0
6 -7 10 -15z m50 -18 c7 -6 6 -7 -4 -4 -8 2 -16 12 -17 23 -2 13 -1 15 4 4 3
-8 11 -19 17 -23z m16 23 c0 -5 -2 -10 -4 -10 -3 0 -8 5 -11 10 -3 6 -1 10 4
10 6 0 11 -4 11 -10z m54 -12 c-5 -8 -2 -9 10 -5 9 4 15 3 12 -2 -9 -14 -39
-19 -61 -10 -18 7 -17 8 5 8 20 1 22 3 10 11 -12 8 -10 10 8 10 15 0 21 -4 16
-12z m-8234 -7 c0 -5 -9 -7 -20 -4 -11 3 -20 0 -20 -6 0 -6 -7 -11 -17 -11 -9
0 -14 -2 -11 -5 3 -3 24 -2 46 3 33 8 39 7 35 -4 -4 -12 -61 -21 -95 -15 -5 0
-8 -3 -8 -9 0 -5 -10 -10 -22 -9 -22 0 -22 1 -3 9 l20 9 -20 1 c-11 1 -14 4
-7 7 6 2 9 9 6 15 -4 6 1 8 15 3 13 -4 21 -2 21 5 0 6 4 9 9 5 5 -3 12 -1 16
5 8 12 55 13 55 1z m3090 -11 c0 -5 -6 -10 -14 -10 -8 0 -18 5 -21 10 -3 6 3
10 14 10 12 0 21 -4 21 -10z m120 0 c0 -5 -6 -10 -14 -10 -8 0 -17 -6 -19 -12
-4 -10 -8 -9 -16 2 -10 13 -12 13 -21 0 -8 -12 -10 -11 -10 8 0 19 5 22 40 22
22 0 40 -4 40 -10z m4815 0 c3 -5 1 -10 -4 -10 -6 0 -11 5 -11 10 0 6 2 10 4
10 3 0 8 -4 11 -10z m280 0 c19 -8 19 -9 -2 -9 -12 -1 -25 4 -28 9 -7 12 2 12
30 0z m69 -16 c4 -10 -2 -14 -19 -14 -16 0 -25 -6 -25 -15 0 -11 -11 -15 -40
-15 -33 0 -40 3 -40 20 0 17 7 20 40 20 28 0 40 4 40 14 0 18 36 10 44 -10z
m-237 10 c-3 -3 -12 -4 -19 -1 -8 3 -5 6 6 6 11 1 17 -2 13 -5z m270 0 c-3 -3
-12 -4 -19 -1 -8 3 -5 6 6 6 11 1 17 -2 13 -5z m-6450 -10 c-3 -3 -12 -4 -19
-1 -8 3 -5 6 6 6 11 1 17 -2 13 -5z m561 -7 c-11 -4 -52 -6 -91 -5 -91 2 -61
13 37 13 45 0 67 -3 54 -8z m255 6 c-7 -2 -21 -2 -30 0 -10 3 -4 5 12 5 17 0
24 -2 18 -5z m187 -3 c0 -5 -2 -10 -4 -10 -3 0 -8 5 -11 10 -3 6 -1 10 4 10 6
0 11 -4 11 -10z m58 3 c-10 -2 -26 -2 -35 0 -10 3 -2 5 17 5 19 0 27 -2 18 -5z
m97 -3 c25 -3 -35 -19 -75 -19 -43 -1 -44 0 -20 12 21 12 47 13 95 7z m324 -6
c2 -2 2 -6 -1 -9 -8 -8 -68 6 -68 16 0 8 59 1 69 -7z m197 1 c19 -14 19 -14
-2 -15 -12 0 -24 7 -28 15 -7 19 5 19 30 0z m81 9 c-3 -3 -12 -4 -19 -1 -8 3
-5 6 6 6 11 1 17 -2 13 -5z m143 -5 c-11 -8 -4 -9 28 -5 25 4 42 2 42 -4 0
-17 -97 -12 -104 5 -4 11 2 15 22 15 22 0 24 -2 12 -11z m107 5 c-3 -3 -12 -4
-19 -1 -8 3 -5 6 6 6 11 1 17 -2 13 -5z m58 -12 c-3 -3 -11 0 -18 7 -9 10 -8
11 6 5 10 -3 15 -9 12 -12z m270 8 c3 -5 1 -10 -4 -10 -6 0 -11 5 -11 10 0 6
2 10 4 10 3 0 8 -4 11 -10z m130 0 c-16 -6 -10 -9 24 -11 64 -6 67 -29 4 -27
l-48 1 45 7 c44 7 45 7 8 8 -50 3 -74 12 -56 23 7 5 20 8 28 8 10 0 8 -3 -5
-9z m157 2 c-8 -5 -10 -16 -5 -27 6 -17 5 -18 -9 -5 -17 16 -7 40 16 40 7 0 6
-3 -2 -8z m-2333 -6 c-2 -2 -31 -6 -64 -9 -37 -3 -51 -2 -35 3 25 8 107 13 99
6z m686 -6 c3 -5 -1 -10 -10 -10 -9 0 -13 5 -10 10 3 6 8 10 10 10 2 0 7 -4
10 -10z m422 4 c-3 -3 -12 -4 -19 -1 -8 3 -5 6 6 6 11 1 17 -2 13 -5z m232 -3
c8 -5 -5 -7 -35 -4 -27 3 -51 7 -53 9 -9 8 75 3 88 -5z m217 1 c-5 -8 -66 -4
-66 4 0 2 16 4 36 4 19 0 33 -4 30 -8z m328 0 c2 -4 -12 -6 -32 -4 -62 6 -69
10 -20 11 26 0 49 -3 52 -7z m63 2 c-3 -3 -12 -4 -19 -1 -8 3 -5 6 6 6 11 1
17 -2 13 -5z m50 0 c-3 -3 -12 -4 -19 -1 -8 3 -5 6 6 6 11 1 17 -2 13 -5z
m368 -4 c3 -5 1 -10 -4 -10 -6 0 -11 5 -11 10 0 6 2 10 4 10 3 0 8 -4 11 -10z
m-2632 -7 c-7 -2 -21 -2 -30 0 -10 3 -4 5 12 5 17 0 24 -2 18 -5z m60 0 c-7
-2 -19 -2 -25 0 -7 3 -2 5 12 5 14 0 19 -2 13 -5z m58 -2 c-11 -7 -4 -11 25
-14 l39 -4 -42 -1 c-32 -2 -43 2 -43 13 0 8 8 15 18 15 14 0 14 -2 3 -9z m737
2 c-10 -2 -26 -2 -35 0 -10 3 -2 5 17 5 19 0 27 -2 18 -5z m405 0 c-7 -2 -19
-2 -25 0 -7 3 -2 5 12 5 14 0 19 -2 13 -5z m474 1 c-3 -3 -12 -4 -19 -1 -8 3
-5 6 6 6 11 1 17 -2 13 -5z m4826 -1 c-7 -2 -19 -2 -25 0 -7 3 -2 5 12 5 14 0
19 -2 13 -5z m32 -2 c3 -5 1 -12 -5 -16 -5 -3 -10 1 -10 9 0 18 6 21 15 7z
m-8835 -11 c-20 -13 -33 -13 -25 0 3 6 14 10 23 10 15 0 15 -2 2 -10z m110 2
c0 -4 -9 -8 -20 -9 -11 -1 -20 2 -20 8 0 5 9 9 20 9 11 0 20 -4 20 -8z m2488
1 c-15 -2 -42 -2 -60 0 -18 2 -6 4 27 4 33 0 48 -2 33 -4z m130 0 c-16 -2 -40
-2 -55 0 -16 2 -3 4 27 4 30 0 43 -2 28 -4z m65 0 c-7 -2 -19 -2 -25 0 -7 3
-2 5 12 5 14 0 19 -2 13 -5z m1564 1 c-3 -3 -12 -4 -19 -1 -8 3 -5 6 6 6 11 1
17 -2 13 -5z m-4402 -14 c-3 -5 -16 -10 -28 -9 -21 0 -21 1 -2 9 28 12 37 12
30 0z m1919 -7 c3 -8 -2 -13 -14 -13 -19 0 -34 13 -25 22 10 10 34 4 39 -9z
m106 5 c0 6 12 9 28 7 15 -2 31 -4 36 -4 5 -1 3 -8 -4 -16 -9 -11 -31 -14 -84
-13 -59 1 -66 3 -38 10 17 5 32 13 32 20 0 7 5 6 15 -2 9 -8 15 -8 15 -2z
m335 2 c-3 -5 -10 -10 -16 -10 -5 0 -9 5 -9 10 0 6 7 10 16 10 8 0 12 -4 9
-10z m2480 0 c-3 -5 -10 -10 -16 -10 -5 0 -9 5 -9 10 0 6 7 10 16 10 8 0 12
-4 9 -10z m205 -4 c8 -2 -13 -4 -48 -5 -35 0 -61 3 -58 7 4 7 70 6 106 -2z
m763 6 c-9 -6 -5 -13 12 -26 25 -19 25 -19 5 -33 -17 -12 -23 -12 -47 2 l-28
15 40 -4 40 -5 -37 11 c-50 15 -54 48 -5 48 19 0 27 -3 20 -8z m3125 1 c-10
-2 -18 -9 -18 -15 0 -5 7 -7 15 -4 38 15 48 16 22 1 -27 -16 -67 -13 -67 5 0
9 25 18 50 18 10 0 9 -2 -2 -5z m-7518 -13 c0 -12 -8 -12 -35 0 -18 8 -17 9 8
9 15 1 27 -3 27 -9z m730 0 c0 -5 -7 -10 -15 -10 -8 0 -15 5 -15 10 0 6 7 10
15 10 8 0 15 -4 15 -10z m60 6 c0 -2 -11 -6 -25 -8 -14 -3 -25 -1 -25 3 0 5
11 9 25 9 14 0 25 -2 25 -4z m57 -2 c-3 -3 -12 -4 -19 -1 -8 3 -5 6 6 6 11 1
17 -2 13 -5z m-1010 -21 c0 -7 -9 -13 -19 -13 -10 0 -18 -4 -18 -10 0 -22 -15
-8 -16 15 -2 20 2 24 25 22 15 -1 28 -8 28 -14z m3863 7 c0 -5 -2 -10 -4 -10
-3 0 -8 5 -11 10 -3 6 -1 10 4 10 6 0 11 -4 11 -10z m160 -3 c0 -9 -10 -12
-31 -9 -22 3 -27 7 -18 13 21 13 49 11 49 -4z m3547 7 c-3 -3 -12 -4 -19 -1
-8 3 -5 6 6 6 11 1 17 -2 13 -5z m210 0 c-3 -3 -12 -4 -19 -1 -8 3 -5 6 6 6
11 1 17 -2 13 -5z m-3062 -14 c4 -6 -7 -10 -27 -9 -31 1 -32 1 -8 9 14 4 26 8
27 9 1 1 5 -3 8 -9z m3115 6 c0 -3 -4 -8 -10 -11 -5 -3 -10 -1 -10 4 0 6 5 11
10 11 6 0 10 -2 10 -4z m-7743 -12 c-3 -3 -12 -4 -19 -1 -8 3 -5 6 6 6 11 1
17 -2 13 -5z m161 -1 c-16 -2 -40 -2 -55 0 -16 2 -3 4 27 4 30 0 43 -2 28 -4z
m187 -3 c16 -7 11 -9 -20 -9 -29 -1 -36 2 -25 9 17 11 19 11 45 0z m168 3 c-7
-2 -19 -2 -25 0 -7 3 -2 5 12 5 14 0 19 -2 13 -5z m3514 1 c-3 -3 -12 -4 -19
-1 -8 3 -5 6 6 6 11 1 17 -2 13 -5z m203 -6 c0 -5 -37 -7 -82 -7 -51 1 -71 4
-54 8 41 8 136 8 136 -1z m118 5 c34 -4 49 -9 40 -14 -9 -6 -6 -9 10 -9 12 0
22 -4 22 -8 0 -5 -13 -7 -30 -4 -16 2 -30 8 -30 14 0 5 -15 6 -35 2 -23 -4
-35 -2 -35 5 0 15 -27 14 -33 -1 -3 -8 -6 -6 -6 5 -1 19 13 21 97 10z m205 0
c-7 -2 -19 -2 -25 0 -7 3 -2 5 12 5 14 0 19 -2 13 -5z m-4498 -11 l-20 -5 20
-8 c18 -7 17 -8 -7 -8 -14 -1 -35 -4 -45 -7 -15 -5 -15 -4 -3 5 12 8 8 11 -20
12 l-35 2 35 7 c41 9 107 11 75 2z m7767 -10 c6 -6 -4 -12 -21 -15 -18 -4 -31
-13 -31 -22 0 -31 -16 -13 -17 19 -1 33 1 34 30 30 17 -2 34 -7 39 -12z
m-7899 1 c-7 -2 -19 -2 -25 0 -7 3 -2 5 12 5 14 0 19 -2 13 -5z m322 1 c-71
-8 -163 -8 -158 -1 2 4 46 6 96 5 51 0 79 -3 62 -4z m4333 -14 c11 -18 10 -20
-10 -19 -13 0 -17 3 -10 6 10 4 10 8 1 19 -6 8 -7 14 -3 14 5 0 15 -9 22 -20z
m127 11 c7 -12 -12 -24 -25 -16 -11 7 -4 25 10 25 5 0 11 -4 15 -9z m3186 -1
c5 0 9 -5 9 -11 0 -6 -9 -8 -20 -4 -21 7 -29 -10 -7 -18 6 -2 8 -8 4 -13 -10
-10 -27 14 -27 40 0 12 5 16 16 12 9 -3 20 -6 25 -6z m-9461 -15 c-11 -13 -10
-14 3 -9 9 3 25 -1 37 -9 20 -14 18 -14 -24 -13 -24 0 -42 4 -39 9 5 9 -11 10
-20 1 -4 -4 -23 -8 -44 -9 -21 -2 -32 -1 -25 2 6 2 10 8 8 12 -5 8 10 12 57
13 15 0 27 5 27 9 0 5 7 9 16 9 14 0 14 -3 4 -15z m60 5 c0 -5 -4 -10 -9 -10
-6 0 -13 5 -16 10 -3 6 1 10 9 10 9 0 16 -4 16 -10z m6160 -6 c0 -8 -4 -12
-10 -9 -5 3 -10 10 -10 16 0 5 5 9 10 9 6 0 10 -7 10 -16z m3297 10 c-3 -3
-12 -4 -19 -1 -8 3 -5 6 6 6 11 1 17 -2 13 -5z m-8077 -8 c0 -3 -4 -8 -10 -11
-5 -3 -10 -1 -10 4 0 6 5 11 10 11 6 0 10 -2 10 -4z m64 -4 c3 -5 -8 -6 -25
-4 -16 2 -29 6 -29 8 0 8 49 4 54 -4z m4561 -2 c3 -5 1 -10 -4 -10 -6 0 -11 5
-11 10 0 6 2 10 4 10 3 0 8 -4 11 -10z m3518 3 c-7 -2 -21 -2 -30 0 -10 3 -4
5 12 5 17 0 24 -2 18 -5z m-73 -13 c-8 -5 -19 -10 -25 -10 -5 0 -3 5 5 10 8 5
20 10 25 10 6 0 3 -5 -5 -10z m117 4 c-3 -3 -12 -4 -19 -1 -8 3 -5 6 6 6 11 1
17 -2 13 -5z m-47 -14 c0 -13 -11 -13 -30 0 -12 8 -11 10 8 10 12 0 22 -4 22
-10z m95 0 c-11 -5 -33 -8 -50 -8 l-30 0 30 8 c17 4 39 8 50 8 l20 1 -20 -9z
m-9808 -6 c-3 -3 -12 -4 -19 -1 -8 3 -5 6 6 6 11 1 17 -2 13 -5z m620 -10 c-3
-3 -12 -4 -19 -1 -8 3 -5 6 6 6 11 1 17 -2 13 -5z m343 -4 c12 -8 11 -10 -7
-10 -13 0 -23 -5 -23 -11 0 -7 7 -8 18 -4 9 4 41 9 69 12 29 3 50 10 47 15 -3
5 4 4 15 -4 20 -12 17 -14 -36 -20 -32 -4 -98 -9 -148 -11 -65 -3 -74 -3 -30
2 l60 7 -50 5 -50 5 53 2 c28 1 52 7 52 12 0 13 11 13 30 0z m73 3 c-7 -2 -21
-2 -30 0 -10 3 -4 5 12 5 17 0 24 -2 18 -5z m150 -5 c-6 -11 -61 -10 -67 1 -3
5 12 8 33 7 21 0 37 -4 34 -8z m74 6 c-3 -3 -12 -4 -19 -1 -8 3 -5 6 6 6 11 1
17 -2 13 -5z m60 0 c-3 -3 -12 -4 -19 -1 -8 3 -5 6 6 6 11 1 17 -2 13 -5z
m5423 -10 c0 -8 -4 -12 -10 -9 -5 3 -10 10 -10 16 0 5 5 9 10 9 6 0 10 -7 10
-16z m198 -5 c26 -1 36 -4 23 -6 -19 -4 -21 -7 -10 -14 11 -7 8 -9 -9 -9 -13
0 -20 4 -17 10 3 6 1 10 -4 10 -6 0 -11 -5 -11 -12 0 -6 -7 -3 -15 8 -8 10
-14 24 -14 29 0 6 3 4 6 -2 3 -8 24 -14 51 -14z m-90 -14 c4 -4 -8 -5 -27 -1
-18 3 -42 6 -52 6 -11 0 -19 4 -19 8 0 10 87 -1 98 -13z m-6978 1 c0 -18 -27
-39 -51 -41 -10 -1 -19 4 -19 11 0 8 -6 11 -16 7 -13 -5 -13 -7 -2 -15 8 -6 4
-7 -12 -3 -14 3 -38 1 -53 -4 -17 -7 -27 -7 -27 -1 0 6 9 10 19 10 11 0 23 5
26 10 3 6 16 10 28 11 12 0 38 6 57 13 47 18 50 18 50 2z m50 4 c0 -5 -10 -10
-22 -10 -19 0 -20 2 -8 10 19 13 30 13 30 0z m340 -6 c0 -2 -9 -4 -20 -4 -11
0 -20 4 -20 9 0 5 9 7 20 4 11 -3 20 -7 20 -9z m6832 -26 c-13 -13 -65 -1 -57
12 3 5 12 7 20 4 9 -4 18 1 21 11 7 16 8 16 17 0 6 -11 5 -21 -1 -27z m-6302
16 c0 -2 -9 -4 -21 -4 -11 0 -18 4 -14 10 5 8 35 3 35 -6z m9333 -6 c18 -9 23
-28 7 -28 -5 0 -13 6 -17 14 -4 7 -27 15 -50 18 -23 2 -39 0 -37 -4 3 -5 -13
-8 -35 -8 -23 0 -41 4 -41 10 0 5 13 7 32 3 23 -4 29 -3 24 6 -6 9 5 10 46 5
29 -4 61 -11 71 -16z m-9413 -3 c7 -9 11 -17 9 -19 -2 -2 -33 -6 -69 -9 -36
-3 -74 -8 -85 -11 -15 -5 -15 -4 3 5 12 7 22 20 22 31 0 15 8 18 54 18 36 0
58 -5 66 -15z m9350 -15 c-31 -6 -32 -8 -8 -9 32 -1 45 -16 22 -25 -31 -12
-63 -6 -74 14 -8 16 -8 18 4 14 8 -3 17 -1 21 5 3 6 21 10 38 10 l32 -2 -35
-7z m-10173 -6 c-3 -3 -12 -4 -19 -1 -8 3 -5 6 6 6 11 1 17 -2 13 -5z m528 -4
c3 -5 1 -10 -4 -10 -6 0 -11 5 -11 10 0 6 2 10 4 10 3 0 8 -4 11 -10z m6819 2
c7 -12 -56 -14 -74 -2 -11 7 -4 10 27 10 23 0 44 -4 47 -8z m226 -2 c-20 -13
-33 -13 -25 0 3 6 14 10 23 10 15 0 15 -2 2 -10z m-7200 -10 c8 -5 11 -12 7
-17 -5 -4 -11 -2 -15 4 -4 6 -21 13 -37 16 l-30 4 30 1 c17 1 37 -2 45 -8z
m93 -6 c12 1 17 1 10 -1 -7 -2 -9 -11 -6 -19 3 -8 0 -14 -7 -14 -6 0 -9 4 -6
9 3 5 -4 11 -15 14 -14 4 -18 10 -13 18 6 10 9 10 12 1 2 -7 13 -10 25 -8z
m6972 6 c11 -5 15 -9 8 -9 -6 -1 -20 -4 -30 -7 -15 -5 -16 -4 -3 6 12 9 8 10
-19 5 -23 -5 -31 -4 -27 4 8 13 42 13 71 1z m90 0 c3 -5 2 -10 -4 -10 -5 0
-13 5 -16 10 -3 6 -2 10 4 10 5 0 13 -4 16 -10z m102 4 c-3 -3 -12 -4 -19 -1
-8 3 -5 6 6 6 11 1 17 -2 13 -5z m2787 -10 c20 -20 21 -19 -11 -19 -33 0 -56
13 -48 26 9 14 42 11 59 -7z m-9790 -2 c5 -9 -41 -8 -51 1 -3 4 5 7 20 7 14 0
28 -4 31 -8z m6986 -8 c0 -2 -9 -4 -20 -4 -11 0 -20 4 -20 9 0 5 9 7 20 4 11
-3 20 -7 20 -9z m-7885 -3 c-15 -12 -75 -22 -75 -11 0 5 15 11 33 13 17 2 36
5 42 5 6 1 6 -1 0 -7z m809 1 c2 -4 -5 -9 -17 -9 -17 -2 -19 0 -7 7 18 12 18
12 24 2z m7106 -7 c0 -10 -10 -15 -32 -15 l-33 0 25 14 c33 19 40 19 40 1z
m2870 5 c24 -8 24 -8 -7 -9 -17 -1 -34 -7 -36 -13 -3 -7 -6 -3 -6 10 -1 23 8
25 49 12z m-10210 -7 c0 -8 -73 -53 -85 -53 -3 0 -3 5 0 10 7 11 -28 14 -39 3
-3 -4 -17 -8 -29 -10 -12 -2 -33 -5 -45 -8 -15 -4 -21 -2 -17 5 3 5 1 10 -4
10 -6 0 -11 5 -11 10 0 6 13 10 28 10 15 0 33 5 40 12 9 9 17 9 36 -1 20 -11
31 -11 68 2 53 18 58 19 58 10z m7265 -3 c3 -5 2 -10 -4 -10 -5 0 -13 5 -16
10 -3 6 -2 10 4 10 5 0 13 -4 16 -10z m2675 -11 c0 -5 -7 -9 -15 -9 -8 0 -15
7 -15 15 0 9 6 12 15 9 8 -4 15 -10 15 -15z m-9890 1 c0 -5 -4 -10 -9 -10 -6
0 -13 5 -16 10 -3 6 1 10 9 10 9 0 16 -4 16 -10z m63 3 c-7 -2 -19 -2 -25 0
-7 3 -2 5 12 5 14 0 19 -2 13 -5z m-798 -13 c-11 -5 -27 -9 -35 -9 -9 0 -8 4
5 9 11 5 27 9 35 9 9 0 8 -4 -5 -9z m10898 3 c-7 -2 -19 -2 -25 0 -7 3 -2 5
12 5 14 0 19 -2 13 -5z m134 1 c-3 -3 -12 -4 -19 -1 -8 3 -5 6 6 6 11 1 17 -2
13 -5z m-10939 -11 c-10 -2 -28 -2 -40 0 -13 2 -5 4 17 4 22 1 32 -1 23 -4z
m277 -3 c-3 -5 -15 -10 -26 -10 -11 0 -17 5 -14 10 3 6 15 10 26 10 11 0 17
-4 14 -10z m10622 2 c7 -4 -8 -7 -32 -7 -23 0 -41 3 -38 8 6 9 54 9 70 -1z
m108 -2 c13 -5 14 -9 5 -9 -8 0 -24 4 -35 9 -13 5 -14 9 -5 9 8 0 24 -4 35 -9z
m-11144 -10 c5 0 9 -4 9 -9 0 -5 -20 -11 -45 -13 -30 -2 -45 1 -45 9 0 12 36
23 58 17 8 -2 18 -4 23 -4z m340 -4 c-10 -11 -3 -14 43 -12 30 0 58 4 62 9 12
12 36 8 28 -5 -5 -8 -2 -9 10 -5 9 4 15 3 12 -2 -3 -4 -31 -11 -63 -15 -31 -4
-69 -9 -83 -13 -14 -3 -22 -2 -18 2 4 5 3 14 -3 21 -12 14 -4 34 13 34 7 0 7
-5 -1 -14z m10222 7 c-7 -2 -21 -2 -30 0 -10 3 -4 5 12 5 17 0 24 -2 18 -5z
m305 0 c-10 -2 -28 -2 -40 0 -13 2 -5 4 17 4 22 1 32 -1 23 -4z m-2387 -10
c-11 -5 -11 -7 0 -14 20 -12 -3 -32 -32 -27 -35 5 -37 36 -2 41 41 6 50 6 34
0z m-85 -18 c20 -15 13 -18 -23 -9 -13 4 -23 10 -23 15 0 14 24 11 46 -6z
m2939 -5 c17 -1 -6 -8 -110 -30 -5 -1 -29 -2 -53 -1 -36 1 -43 4 -40 19 2 12
13 17 41 18 20 0 39 3 42 6 3 2 26 1 53 -3 26 -4 56 -8 67 -9z m-11425 1 c0
-12 -48 -23 -63 -14 -8 5 -1 10 18 14 44 10 45 10 45 0z m-64 -51 c8 0 14 5
14 10 0 16 46 12 60 -5 14 -17 0 -21 -17 -4 -8 8 -17 7 -34 -5 l-23 -16 29 0
c23 0 27 -3 15 -10 -12 -8 -8 -10 15 -11 27 -1 27 -2 -10 -10 -22 -6 -54 -13
-71 -18 -46 -12 -64 3 -25 20 33 15 44 33 14 22 -15 -5 -16 -3 -5 8 15 16 16
39 1 39 -5 0 -7 -4 -4 -10 3 -5 1 -10 -4 -10 -18 0 -12 28 7 32 10 2 18 -3 20
-14 2 -10 10 -18 18 -18z m11562 19 c-14 -4 -32 -10 -39 -14 -8 -5 -10 -4 -5
3 4 7 1 12 -6 12 -10 0 -10 2 0 8 7 5 27 6 45 4 l32 -5 -27 -8z m-11405 4 c-7
-2 -21 -2 -30 0 -10 3 -4 5 12 5 17 0 24 -2 18 -5z m8647 -14 c0 -10 -12 -11
-34 -3 -25 10 -19 22 9 16 14 -2 25 -8 25 -13z m303 14 c-7 -2 -19 -2 -25 0
-7 3 -2 5 12 5 14 0 19 -2 13 -5z m2382 -3 c3 -5 -1 -10 -9 -10 -8 0 -18 5
-21 10 -3 6 1 10 9 10 8 0 18 -4 21 -10z m116 -13 c-10 -9 -11 -8 -5 6 3 10 9
15 12 12 3 -3 0 -11 -7 -18z m-11671 6 c0 -5 -15 -9 -33 -10 -26 -1 -28 0 -12
7 26 11 45 12 45 3z m395 -13 c7 -12 -29 -12 -65 0 -21 7 -19 8 17 9 23 1 45
-3 48 -9z m-435 -16 c0 -2 -12 -4 -26 -4 -14 0 -23 4 -20 9 6 8 46 4 46 -5z
m328 1 l57 4 -49 -9 c-26 -5 -55 -11 -63 -14 -8 -4 -11 -2 -7 5 4 8 -1 9 -15
4 -12 -3 -21 -2 -21 4 0 12 34 20 38 9 2 -4 29 -6 60 -3z m-405 -5 c-32 -13
-29 -23 4 -17 26 5 26 4 8 -9 -13 -9 -22 -11 -29 -4 -13 13 -46 13 -46 -1 0
-5 5 -7 12 -3 7 4 8 3 4 -4 -4 -7 -18 -10 -34 -6 -22 4 -24 3 -12 -6 12 -9 11
-10 -8 -5 -16 5 -30 1 -45 -13 -15 -13 -30 -17 -46 -13 -22 6 -21 8 20 25 24
10 53 22 64 27 41 18 101 38 115 38 8 0 5 -4 -7 -9z m122 0 c3 -5 1 -10 -4
-10 -6 0 -11 5 -11 10 0 6 2 10 4 10 3 0 8 -4 11 -10z m8892 4 c-3 -3 -12 -4
-19 -1 -8 3 -5 6 6 6 11 1 17 -2 13 -5z m-8719 -22 c2 -7 -1 -12 -8 -12 -6 0
-9 4 -6 9 4 5 1 12 -4 14 -6 3 -5 4 2 3 6 -1 14 -8 16 -14z m9012 9 c0 -6 -9
-9 -20 -8 -11 1 -20 5 -20 9 0 4 9 8 20 8 11 0 20 -4 20 -9z m2710 -44 c10 -4
7 -6 -7 -6 -13 -1 -23 3 -23 8 0 5 -9 13 -20 16 -11 3 -20 14 -20 23 0 12 6
10 28 -10 15 -14 34 -28 42 -31z m35 43 c19 -8 18 -9 -5 -11 -21 -1 -19 -3 10
-9 l35 -8 -34 1 c-24 2 -35 7 -37 20 -2 19 1 20 31 7z m116 -33 c4 -5 11 -7
17 -3 6 3 13 2 16 -3 4 -5 -22 -9 -60 -8 -55 1 -62 3 -39 10 21 7 24 12 14 19
-9 5 -3 6 16 2 17 -4 33 -11 36 -17z m-2791 -12 c7 -9 8 -15 2 -15 -5 0 -12 7
-16 15 -3 8 -4 15 -2 15 2 0 9 -7 16 -15z m-9390 -5 c-8 -5 -22 -10 -30 -10
-13 0 -13 1 0 10 8 5 22 10 30 10 13 0 13 -1 0 -10z m12077 4 c-3 -3 -12 -4
-19 -1 -8 3 -5 6 6 6 11 1 17 -2 13 -5z m-2592 -14 c-3 -6 4 -10 17 -10 18 0
20 2 8 10 -8 5 -10 10 -4 10 6 0 17 -7 24 -15 11 -13 7 -15 -29 -15 -39 0 -55
13 -28 23 18 8 19 8 12 -3z m132 4 c-3 -3 -12 -4 -19 -1 -8 3 -5 6 6 6 11 1
17 -2 13 -5z m-9682 -14 c-3 -5 -18 -10 -33 -10 -21 0 -24 -2 -12 -10 12 -8 9
-10 -13 -10 -24 0 -26 2 -14 14 12 12 26 17 70 25 5 0 5 -3 2 -9z m65 1 c0 -5
-11 -11 -25 -13 -14 -3 -25 -3 -25 -1 0 3 34 19 48 22 1 1 2 -3 2 -8z m12395
-1 c3 -5 -1 -10 -9 -10 -8 0 -18 5 -21 10 -3 6 1 10 9 10 8 0 18 -4 21 -10z
m-12634 -15 c-18 -8 -36 -15 -40 -15 -13 1 45 29 59 29 8 0 0 -6 -19 -14z
m9876 -1 c8 -21 -9 -36 -27 -23 -13 9 -12 10 3 5 9 -3 17 -1 17 4 0 6 -4 10
-10 10 -5 0 -10 5 -10 10 0 16 20 12 27 -6z m-9807 -4 c0 -5 -5 -10 -11 -10
-5 0 -7 5 -4 10 3 6 8 10 11 10 2 0 4 -4 4 -10z m-124 -9 c-11 -17 24 -20 61
-5 30 13 35 13 23 2 -26 -24 -68 -39 -73 -25 -3 9 -8 9 -20 -2 -10 -7 -17 -9
-17 -3 0 6 6 13 13 15 6 3 1 6 -13 7 -23 1 -23 2 -5 10 27 12 37 12 31 1z
m9871 3 c-3 -3 -12 -4 -19 -1 -8 3 -5 6 6 6 11 1 17 -2 13 -5z m2982 -10 c11
-10 -19 -25 -40 -21 -21 4 -20 5 6 6 30 3 30 3 -10 17 l-40 13 40 -5 c22 -3
42 -8 44 -10z m-12908 -23 l20 -18 -21 -6 c-11 -3 -20 -1 -20 4 0 4 -7 6 -15
3 -18 -7 -20 7 -3 24 15 15 15 15 39 -7z m10064 9 c-3 -5 3 -10 14 -10 10 0
26 -3 34 -6 8 -3 22 2 31 11 18 19 62 16 58 -3 -2 -10 4 -11 20 -7 21 7 21 6
-4 -14 -27 -21 -58 -28 -58 -12 0 5 -21 12 -47 16 -26 4 -56 13 -67 21 -20 14
-20 14 2 14 13 0 20 -4 17 -10z m2758 3 c-7 -2 -19 -2 -25 0 -7 3 -2 5 12 5
14 0 19 -2 13 -5z m186 -9 c2 -2 -15 -2 -37 -1 -23 1 -36 5 -29 9 10 6 55 1
66 -8z m-13074 -24 c-3 -5 3 -11 12 -14 14 -4 14 -4 -2 -3 -11 1 -21 11 -23
21 -3 11 0 16 7 11 6 -3 9 -10 6 -15z m10358 13 c-7 -2 -19 -2 -25 0 -7 3 -2
5 12 5 14 0 19 -2 13 -5z m-60 -28 c-3 -9 -8 -14 -10 -11 -3 3 -2 9 2 15 9 16
15 13 8 -4z m2875 8 c-16 -2 -40 -2 -55 0 -16 2 -3 4 27 4 30 0 43 -2 28 -4z
m52 -13 c0 -5 -2 -10 -4 -10 -3 0 -8 5 -11 10 -3 6 -1 10 4 10 6 0 11 -4 11
-10z m-23 -16 c-3 -3 -12 -4 -19 -1 -8 3 -5 6 6 6 11 1 17 -2 13 -5z m163 1
c0 -2 -10 -9 -21 -16 -17 -8 -20 -8 -14 1 6 9 -1 10 -25 5 -23 -5 -30 -4 -26
4 7 10 86 16 86 6z m-163 -21 c-3 -3 -12 -4 -19 -1 -8 3 -5 6 6 6 11 1 17 -2
13 -5z m190 0 c-3 -3 -12 -4 -19 -1 -8 3 -5 6 6 6 11 1 17 -2 13 -5z m91 -3
c20 -12 -12 -23 -45 -15 -18 5 -21 9 -11 15 17 11 39 11 56 0z m-13738 -21
c-8 -5 -19 -10 -25 -10 -5 0 -3 5 5 10 8 5 20 10 25 10 6 0 3 -5 -5 -10z
m10945 -23 c7 -7 3 -7 -10 -2 -11 4 -32 10 -47 13 -15 2 -25 8 -23 13 6 9 65
-8 80 -24z m-114 8 l34 -16 -35 7 c-19 4 -44 10 -55 15 -19 7 -19 8 1 8 12 1
37 -6 55 -14z m2927 -15 c6 0 12 -4 12 -9 0 -14 -52 -20 -78 -8 -22 10 -22 12
-5 19 10 4 27 5 38 3 11 -3 26 -5 33 -5z m-2738 -40 c20 -6 21 -8 5 -8 -11 0
-29 3 -40 8 -25 11 1 11 35 0z m2598 -2 c-6 -18 -28 -21 -28 -4 0 9 7 16 16
16 9 0 14 -5 12 -12z m227 -4 c-22 -9 -55 -22 -73 -30 -18 -8 -41 -14 -52 -14
-10 0 -22 -5 -25 -11 -4 -6 -13 -8 -20 -5 -8 3 -15 2 -17 -2 -6 -14 -78 -41
-140 -53 -84 -15 -90 -17 -84 -27 2 -4 -7 -9 -21 -10 -14 -1 -31 -6 -38 -12
-6 -5 -21 -6 -34 -3 -13 3 -26 1 -30 -5 -3 -6 -26 -13 -51 -16 -25 -4 -58 -9
-75 -11 -24 -4 -26 -3 -10 4 11 5 32 10 48 10 15 1 27 6 27 11 0 6 7 10 16 10
8 0 13 4 10 9 -4 5 2 8 11 6 73 -15 87 -15 75 -3 -20 20 -14 25 31 31 23 3 56
8 72 11 17 3 51 7 77 11 26 3 50 11 54 16 4 7 -8 8 -33 5 -36 -6 -36 -5 -8 4
17 6 38 8 48 6 23 -6 49 3 42 14 -7 11 5 18 45 25 18 3 41 10 51 15 10 6 30
10 46 10 15 0 35 5 43 10 8 5 24 10 35 9 12 0 4 -6 -20 -15z m-2680 -5 c23 1
26 -1 15 -9 -10 -6 -11 -10 -2 -10 6 0 12 -4 12 -10 0 -14 -20 -12 -52 4 -16
8 -28 11 -28 6 0 -5 -11 -4 -25 2 -32 14 -12 31 25 22 14 -4 39 -6 55 -5z
m167 -74 c5 -6 15 -5 29 3 11 7 24 11 27 8 3 -3 -1 -6 -9 -6 -11 0 -11 -2 1
-10 12 -8 10 -10 -10 -11 -14 -1 -29 0 -35 1 -5 1 -32 8 -60 15 l-50 12 50 -1
c28 0 53 -5 57 -11z m373 -3 c-3 -3 -11 0 -18 7 -9 10 -8 11 6 5 10 -3 15 -9
12 -12z m1745 -2 c0 -5 -4 -10 -10 -10 -5 0 -10 5 -10 10 0 6 5 10 10 10 6 0
10 -4 10 -10z m-2020 -30 c0 -13 -11 -13 -30 0 -12 8 -11 10 8 10 12 0 22 -4
22 -10z m75 -39 c-3 -2 -11 1 -18 7 -8 7 -18 8 -22 4 -5 -4 -5 -1 -1 5 5 10
11 10 26 1 11 -7 17 -14 15 -17z m162 -13 c26 -27 -1 -35 -57 -17 -35 12 -43
16 -20 13 41 -7 31 12 -10 19 -14 3 -3 3 24 1 28 -2 56 -9 63 -16z m1463 2 c0
-5 -4 -10 -10 -10 -5 0 -10 5 -10 10 0 6 5 10 10 10 6 0 10 -4 10 -10z m80 0
c0 -5 -5 -10 -11 -10 -5 0 -7 5 -4 10 3 6 8 10 11 10 2 0 4 -4 4 -10z m-1394
-69 c-11 -17 113 -30 147 -16 10 4 21 5 24 1 4 -3 -1 -6 -10 -6 -19 0 -23 -15
-6 -26 6 -3 15 -1 19 6 7 11 11 10 24 -3 9 -8 16 -20 16 -26 0 -17 -50 -13
-56 4 -4 9 -19 15 -41 15 -19 0 -32 4 -29 9 3 5 -9 9 -28 9 -18 0 -44 6 -57
13 -13 7 -37 16 -54 20 -28 6 -26 7 13 8 24 1 41 -3 38 -8z m894 -11 c-6 -11
-13 -20 -15 -20 -2 0 -3 9 -2 20 1 11 7 20 14 20 11 0 11 -5 3 -20z m117 14
c-3 -3 -12 -4 -19 -1 -8 3 -5 6 6 6 11 1 17 -2 13 -5z m63 -4 c0 -5 -4 -10
-10 -10 -5 0 -10 5 -10 10 0 6 5 10 10 10 6 0 10 -4 10 -10z m130 0 c-25 -4
-58 -10 -75 -12 -16 -3 -21 -3 -10 0 18 5 18 6 -5 12 -14 3 10 6 55 7 67 0 72
-1 35 -7z m-260 -25 c14 -16 10 -18 -14 -9 -9 3 -16 10 -16 15 0 14 16 11 30
-6z m-26 -45 c-6 -5 -24 21 -24 34 0 6 6 1 14 -10 8 -10 12 -21 10 -24z m-606
-13 c16 -19 -2 -40 -27 -32 -23 7 -28 30 -8 38 20 8 24 8 35 -6z m522 -3 c0
-2 -18 -4 -40 -4 -22 0 -40 3 -40 8 0 4 18 6 40 4 22 -2 40 -6 40 -8z m-193
-10 c-2 -3 -18 -9 -35 -13 -26 -8 -30 -7 -29 8 1 13 8 16 34 13 19 -3 32 -6
30 -8z m68 -4 c-3 -5 -12 -7 -20 -3 -21 7 -19 13 6 13 11 0 18 -4 14 -10z
m-295 -25 c0 -16 -9 -19 -34 -9 -25 9 -19 24 9 24 16 0 25 -6 25 -15z m260 11
c0 -2 -13 -6 -29 -8 -17 -2 -28 -1 -25 4 5 8 54 12 54 4z m-149 -24 c-6 -2 -9
-8 -5 -13 3 -5 -1 -9 -10 -9 -8 0 -17 6 -19 13 -3 7 -6 5 -6 -5 -1 -22 -20
-23 -47 -3 -18 13 -18 14 5 8 16 -4 22 -3 17 5 -4 7 7 10 35 9 22 -1 36 -3 30
-5z"/>
<path d="M12045 6029 c-10 -15 3 -25 16 -12 7 7 7 13 1 17 -6 3 -14 1 -17 -5z"/>
<path d="M5708 4903 c-31 -2 -61 -9 -66 -16 -11 -14 -35 -748 -24 -759 9 -9
367 -25 451 -20 l63 4 -6 71 c-4 40 -11 215 -16 389 -5 175 -11 322 -15 328
-6 9 -250 11 -387 3z"/>
<path d="M2578 4683 c-10 -12 -17 -51 -22 -118 -4 -55 -11 -154 -16 -220 -25
-329 -25 -300 -2 -323 17 -17 29 -20 54 -16 18 3 77 9 131 13 71 4 100 10 107
21 6 9 10 144 10 316 0 243 -3 304 -14 313 -14 12 -133 30 -197 31 -22 0 -42
-7 -51 -17z"/>
<path d="M5098 2513 c7 -3 16 -2 19 1 4 3 -2 6 -13 5 -11 0 -14 -3 -6 -6z"/>
<path d="M10208 2183 c6 -2 18 -2 25 0 6 3 1 5 -13 5 -14 0 -19 -2 -12 -5z"/>
<path d="M1644 1875 c-18 -14 -18 -14 4 -8 12 3 22 9 22 14 0 12 -3 11 -26 -6z"/>
<path d="M1848 1783 c7 -3 16 -2 19 1 4 3 -2 6 -13 5 -11 0 -14 -3 -6 -6z"/>
<path d="M9700 1730 c0 -5 9 -10 21 -10 11 0 17 5 14 10 -3 6 -13 10 -21 10
-8 0 -14 -4 -14 -10z"/>
<path d="M10745 1500 c3 -5 11 -10 16 -10 6 0 7 5 4 10 -3 6 -11 10 -16 10 -6
0 -7 -4 -4 -10z"/>
<path d="M11338 1333 c7 -3 16 -2 19 1 4 3 -2 6 -13 5 -11 0 -14 -3 -6 -6z"/>
<path d="M12348 1013 c7 -3 16 -2 19 1 4 3 -2 6 -13 5 -11 0 -14 -3 -6 -6z"/>
<path d="M11769 8318 c-10 -35 0 -56 22 -42 8 4 7 9 -2 16 -10 6 -7 7 9 3 25
-7 31 10 6 19 -16 6 -33 8 -35 4z"/>
<path d="M9088 7213 c-21 -25 -30 -63 -13 -63 7 0 18 7 26 16 8 9 21 13 35 10
13 -4 24 -1 27 7 13 35 -49 60 -75 30z m57 -13 c8 -13 -5 -13 -25 0 -13 8 -13
10 2 10 9 0 20 -4 23 -10z m-52 -15 c-3 -9 -8 -14 -10 -11 -3 3 -2 9 2 15 9
16 15 13 8 -4z"/>
<path d="M11475 2340 c19 -21 45 -27 45 -10 0 11 -33 30 -51 30 -8 0 -5 -7 6
-20z"/>
<path d="M10640 1140 c-30 -4 -122 -15 -205 -25 -82 -9 -161 -18 -175 -20 -50
-6 -277 -35 -365 -45 -219 -26 -252 -30 -280 -34 -16 -2 -57 -6 -90 -10 -33
-4 -75 -9 -94 -12 -32 -5 -34 -4 -20 12 16 21 29 25 -121 -39 -253 -107 -447
-177 -715 -256 -391 -116 -902 -208 -1340 -242 -250 -19 -990 -8 -1100 16 -11
2 -97 13 -190 24 -354 43 -809 146 -1160 264 -82 28 -174 53 -202 57 l-53 6 0
-58 c0 -32 -1 -61 -2 -65 -7 -17 531 -203 787 -272 380 -102 848 -186 1250
-222 192 -17 910 -20 1120 -4 99 7 203 16 230 19 326 39 492 66 745 121 604
130 1204 345 1749 625 73 38 138 73 145 78 6 5 46 28 89 51 43 22 73 40 65 40
-7 -1 -38 -5 -68 -9z"/>
</g>
</svg>
